<svg id="ffb8f7ba-38d0-44a1-9dc2-5ff72cb33286" data-name="圖層 1" xmlns="http://www.w3.org/2000/svg" viewBox="0 0 31.86 15.48"><path d="M6.93,8.32A7.72,7.72,0,0,1,14.66,16a7.62,7.62,0,0,1-1.84,5,6.31,6.31,0,0,1-.44.47A7.59,7.59,0,0,1,7,23.74H.07V8.29ZM2.81,21H6.93a5,5,0,1,0,0-9.93H2.81Z" transform="translate(-0.07 -8.26)" fill="#175c97"/><path d="M14,11h4.52l1.54-2.78H10.71A8.59,8.59,0,0,1,14,11Z" transform="translate(-0.07 -8.26)" fill="#34a995"/><path d="M20.18,15.74l-.17-.2A4.88,4.88,0,0,0,16.41,14H10.7a1.41,1.41,0,0,1-1.26-1.38,4.18,4.18,0,0,0-2.36-.74H6.75a4.07,4.07,0,0,0,0,.61v.09a4.05,4.05,0,0,0,.73,2.36,3.74,3.74,0,0,0,.53.66,4.11,4.11,0,0,0,2.89,1.17h5.56a2.12,2.12,0,1,1,0,4.24H14c-.13.18-.27.35-.41.52a5.9,5.9,0,0,1-.49.51,8.13,8.13,0,0,1-2.3,1.66,5.16,5.16,0,0,0,.79.07h4.83a4.87,4.87,0,0,0,3.77-8Z" transform="translate(-0.07 -8.26)" fill="#34a995"/><path d="M23.68,8.29H21.05l-2.73,5.09a5.72,5.72,0,0,1,2.36,1.52l1.67-3.07,6.51,11.91h3.07Z" transform="translate(-0.07 -8.26)" fill="#e1aa3a"/></svg>