<?xml version="1.0" encoding="utf-8"?>
<!-- Generator: Adobe Illustrator 24.1.2, SVG Export Plug-In . SVG Version: 6.00 Build 0)  -->
<svg version="1.1" id="圖層_1" xmlns="http://www.w3.org/2000/svg" xmlns:xlink="http://www.w3.org/1999/xlink" x="0px" y="0px"
	 viewBox="0 0 183 63" style="enable-background:new 0 0 183 63;" xml:space="preserve">
<style type="text/css">
	.st0{fill-rule:evenodd;clip-rule:evenodd;fill:#FEFEFE;}
	.st1{filter:url(#Adobe_OpacityMaskFilter);}
	.st2{fill-rule:evenodd;clip-rule:evenodd;fill:#FFFFFF;}
	.st3{mask:url(#b_1_);fill-rule:evenodd;clip-rule:evenodd;fill:#FEFEFE;}
	.st4{filter:url(#Adobe_OpacityMaskFilter_1_);}
	.st5{mask:url(#d_1_);fill-rule:evenodd;clip-rule:evenodd;fill:#FEFEFE;}
	.st6{filter:url(#Adobe_OpacityMaskFilter_2_);}
	.st7{mask:url(#f_2_);fill-rule:evenodd;clip-rule:evenodd;fill:#FEFEFE;}
	.st8{filter:url(#Adobe_OpacityMaskFilter_3_);}
	.st9{mask:url(#h_2_);fill-rule:evenodd;clip-rule:evenodd;fill:#FEFEFE;}
	.st10{filter:url(#Adobe_OpacityMaskFilter_4_);}
	.st11{mask:url(#j_2_);fill-rule:evenodd;clip-rule:evenodd;fill:#FEFEFE;}
	.st12{filter:url(#Adobe_OpacityMaskFilter_5_);}
	.st13{mask:url(#l_2_);fill-rule:evenodd;clip-rule:evenodd;fill:#FEFEFE;}
	.st14{filter:url(#Adobe_OpacityMaskFilter_6_);}
	.st15{mask:url(#b_2_);fill-rule:evenodd;clip-rule:evenodd;fill:#FEFEFE;}
	.st16{filter:url(#Adobe_OpacityMaskFilter_7_);}
	.st17{mask:url(#d_2_);fill-rule:evenodd;clip-rule:evenodd;fill:#FEFEFE;}
</style>
<g>
	<path class="st0" d="M0.67,40.63c0-5.04,0.03-3.23,0.01-5.94c0-0.54,0.04-0.7,0.15-0.7c0.11,0,0.35,0.31,0.49,0.45
		c0.21,0.24,2.29,2.49,4.44,4.79c1.38,1.48,2.91,3.18,3.35,3.65l-0.15-7.1c-0.01-0.91-0.11-1.22-0.54-1.33
		c-0.2-0.04-0.4-0.07-0.6-0.07c-0.15,0-0.2-0.04-0.2-0.1c0-0.08,0.11-0.1,0.28-0.1c0.63,0,1.3,0.04,1.45,0.04
		c0.15,0,0.62-0.04,1.19-0.04c0.15,0,0.25,0.01,0.25,0.1c0,0.06-0.06,0.08-0.15,0.1c-0.11,0.01-0.2,0.03-0.36,0.06
		c-0.39,0.08-0.49,0.29-0.49,1.26l-0.03,8.16c0,0.92-0.03,0.99-0.12,0.99c-0.11,0-0.28-0.15-1.02-0.89
		c-0.15-0.14-2.17-2.19-3.65-3.78c-1.23-1.33-2.44-2.66-3.64-4.01l0.18,6.69c0.03,1.15,0.17,1.51,0.55,1.62
		c0.27,0.07,0.57,0.08,0.7,0.08c0.07,0,0.11,0.03,0.11,0.08c0,0.08-0.08,0.11-0.25,0.11c-0.79,0-1.35-0.04-1.48-0.04
		c-0.13,0-0.71,0.04-1.34,0.04c-0.14,0-0.22-0.01-0.22-0.11c0-0.06,0.04-0.08,0.11-0.08c0.11,0,0.36-0.01,0.57-0.08
		c0.35-0.1,0.42-0.5,0.42-1.77C0.67,42.7,0.67,40.63,0.67,40.63z M16.95,40.86c0.06,0,0.06-0.04,0.04-0.08l-1.1-3.09
		c-0.07-0.2-0.08-0.2-0.15,0l-1.05,3.09c-0.03,0.05,0,0.08,0.03,0.08H16.95L16.95,40.86z M14.58,41.35c-0.07,0-0.11,0.04-0.14,0.11
		l-0.61,1.75c-0.14,0.39-0.24,0.77-0.24,0.99c0,0.25,0.15,0.36,0.46,0.36h0.1c0.13,0,0.17,0.04,0.17,0.1c0,0.07-0.11,0.1-0.21,0.1
		c-0.31,0-0.95-0.04-1.1-0.04c-0.14,0-0.75,0.04-1.34,0.04c-0.15,0-0.22-0.03-0.22-0.1c0-0.06,0.06-0.1,0.17-0.1
		c0.07,0,0.2,0,0.28-0.01c0.6-0.06,0.84-0.52,1.08-1.1l2.79-7.36c0.15-0.4,0.2-0.47,0.29-0.47c0.07,0,0.13,0.06,0.28,0.45
		c0.2,0.46,2.1,5.34,2.84,7.08c0.46,1.1,0.87,1.28,1.06,1.35c0.18,0.07,0.38,0.07,0.47,0.07c0.1,0,0.17,0.03,0.17,0.1
		c0,0.07-0.06,0.1-0.21,0.1c-0.14,0-1.19,0-2.12-0.03c-0.27-0.01-0.35-0.03-0.35-0.1c0-0.04,0.04-0.08,0.1-0.1
		c0.06-0.03,0.14-0.1,0.06-0.31l-1.1-2.81c-0.03-0.04-0.06-0.07-0.11-0.07C17.12,41.35,14.58,41.35,14.58,41.35z M24.81,41.3
		c0,1.08,0.01,2.07,0.07,2.58c0.04,0.34,0.07,0.53,0.42,0.61c0.17,0.04,0.43,0.06,0.55,0.06c0.11,0,0.17,0.04,0.17,0.08
		c0,0.07-0.04,0.11-0.18,0.11c-0.71,0-1.54-0.04-1.59-0.04c-0.06,0-0.88,0.04-1.24,0.04c-0.15,0-0.21-0.03-0.21-0.1
		c0-0.04,0.04-0.1,0.15-0.1c0.11,0,0.2,0,0.31-0.01c0.27-0.04,0.31-0.21,0.36-0.69c0.05-0.5,0.05-1.51,0.05-2.56v-4.99
		c-0.46,0-1.2,0-1.76,0.01c-0.89,0.01-1.09,0.15-1.28,0.45c-0.13,0.19-0.18,0.36-0.21,0.43c-0.04,0.1-0.07,0.11-0.13,0.11
		c-0.06,0-0.07-0.06-0.07-0.13c-0.01-0.08,0.2-1.01,0.28-1.38c0.04-0.17,0.08-0.22,0.13-0.22c0.1,0,0.36,0.13,0.61,0.15
		c0.49,0.06,0.88,0.07,0.89,0.07h4.58c0.39,0,0.81-0.03,1.01-0.07c0.18-0.04,0.22-0.06,0.27-0.06c0.06,0,0.08,0.07,0.08,0.13
		c0,0.39-0.03,1.31-0.03,1.43c0,0.13-0.06,0.17-0.1,0.17c-0.07,0-0.1-0.06-0.1-0.17c0-0.04,0-0.06-0.01-0.2
		c-0.06-0.56-0.24-0.7-1.65-0.71c-0.53,0-0.96-0.01-1.37-0.01L24.81,41.3L24.81,41.3z M30.54,39.21c0-1.84,0-2.18-0.03-2.56
		c-0.03-0.38-0.11-0.59-0.41-0.64c-0.14-0.03-0.24-0.03-0.32-0.04c-0.1-0.01-0.15-0.04-0.15-0.1c0-0.07,0.06-0.1,0.21-0.1
		c0.43,0,1.23,0.04,1.27,0.04c0.06,0,0.87-0.04,1.26-0.04c0.14,0,0.21,0.03,0.21,0.1c0,0.06-0.04,0.08-0.15,0.1
		c-0.08,0.01-0.15,0.01-0.25,0.03c-0.4,0.06-0.45,0.27-0.47,0.67c-0.03,0.38-0.01,0.7-0.01,2.54v2.1c0,1.08-0.01,2.05,0.06,2.56
		c0.06,0.4,0.11,0.56,0.48,0.64c0.18,0.04,0.47,0.06,0.53,0.06c0.13,0.01,0.15,0.04,0.15,0.1s-0.06,0.1-0.2,0.1
		c-0.71,0-1.52-0.04-1.59-0.04c-0.04,0-0.87,0.04-1.26,0.04c-0.13,0-0.22-0.03-0.22-0.1c0-0.06,0.06-0.1,0.18-0.1
		c0.07,0,0.22-0.01,0.34-0.04c0.24-0.06,0.28-0.34,0.32-0.67c0.07-0.5,0.07-1.49,0.07-2.54L30.54,39.21L30.54,39.21z M42.57,40.41
		c0-2.81-1.73-4.37-3.65-4.37c-1.94,0-3.51,1.2-3.51,3.84c0,2.74,1.52,4.55,3.87,4.55C40.22,44.43,42.57,43.96,42.57,40.41
		 M34.12,40.24c0-1.86,1.44-4.64,4.89-4.64c2.77,0,4.87,1.65,4.87,4.46c0,2.67-1.97,4.85-4.94,4.85
		C35.51,44.91,34.12,42.37,34.12,40.24 M46.14,36.18c0-0.43,0.04-0.57,0.15-0.57c0.1,0,0.34,0.28,0.43,0.38
		c0.13,0.14,2.07,2.12,4.02,4.12c1.09,1.06,2.49,2.5,2.85,2.83l-0.15-5.81c-0.01-0.75-0.1-1.01-0.47-1.1
		c-0.18-0.03-0.36-0.05-0.54-0.06c-0.14,0-0.17-0.06-0.17-0.11c0-0.07,0.11-0.08,0.25-0.08c0.6,0,1.19,0.04,1.31,0.04
		c0.14,0,0.57-0.04,1.12-0.04c0.15,0,0.2,0.01,0.2,0.08c0,0.06-0.04,0.1-0.13,0.11c-0.08,0.01-0.2,0.01-0.35,0.04
		c-0.32,0.07-0.42,0.21-0.42,1.05l-0.03,7.01c0,0.7-0.03,0.77-0.13,0.77c-0.1,0-0.24-0.1-0.92-0.74c-0.06-0.03-2-1.95-3.21-3.14
		c-1.45-1.51-2.85-2.96-3.2-3.32l0.18,5.46c0.03,0.96,0.11,1.33,0.46,1.41c0.22,0.06,0.46,0.06,0.57,0.06c0.11,0,0.17,0.04,0.17,0.1
		c0,0.07-0.07,0.1-0.22,0.1c-0.75,0-1.26-0.04-1.36-0.04c-0.1,0-0.61,0.04-1.22,0.04c-0.13,0-0.21-0.01-0.21-0.1
		c0-0.06,0.05-0.1,0.2-0.1c0.1,0,0.25,0,0.43-0.06c0.31-0.1,0.38-0.47,0.38-1.49C46.14,36.35,46.16,38.5,46.14,36.18 M61.22,40.86
		c0.06,0,0.06-0.04,0.04-0.08l-1.1-3.09c-0.07-0.2-0.08-0.2-0.15,0l-1.05,3.09c-0.03,0.05,0,0.08,0.03,0.08H61.22L61.22,40.86z
		 M58.85,41.35c-0.07,0-0.11,0.04-0.14,0.11L58.1,43.2c-0.14,0.39-0.24,0.77-0.24,0.99c0,0.25,0.15,0.36,0.46,0.36h0.1
		c0.13,0,0.17,0.04,0.17,0.1c0,0.07-0.11,0.1-0.21,0.1c-0.31,0-0.95-0.04-1.1-0.04c-0.14,0-0.75,0.04-1.34,0.04
		c-0.15,0-0.22-0.03-0.22-0.1c0-0.06,0.06-0.1,0.17-0.1c0.07,0,0.2,0,0.28-0.01c0.6-0.06,0.84-0.52,1.08-1.1l2.79-7.36
		c0.15-0.4,0.2-0.47,0.29-0.47c0.07,0,0.13,0.06,0.28,0.45c0.2,0.46,2.1,5.34,2.84,7.08c0.46,1.1,0.87,1.28,1.06,1.35
		c0.18,0.07,0.38,0.07,0.47,0.07c0.1,0,0.17,0.03,0.17,0.1c0,0.07-0.06,0.1-0.21,0.1c-0.14,0-1.19,0-2.12-0.03
		c-0.27-0.01-0.35-0.03-0.35-0.1c0-0.04,0.04-0.08,0.1-0.1c0.06-0.03,0.14-0.1,0.06-0.31l-1.1-2.81c-0.03-0.04-0.06-0.07-0.11-0.07
		H58.85L58.85,41.35z M68.32,41.33c0,1.61,0.06,2.42,0.29,2.64c0.22,0.2,0.5,0.28,1.47,0.28c0.61,0,1.17,0,1.48-0.39
		c0.14-0.21,0.24-0.49,0.27-0.7c0.01-0.11,0.04-0.17,0.11-0.17c0.06,0,0.08,0.04,0.08,0.18s-0.08,0.94-0.17,1.26
		c-0.08,0.28-0.07,0.35-0.74,0.35c-0.95,0-2-0.07-3.39-0.07c-0.46,0-0.74,0.04-1.23,0.04c-0.14,0-0.22-0.03-0.22-0.11
		c0-0.04,0.04-0.08,0.15-0.08c0.11,0,0.22,0,0.34-0.03c0.24-0.04,0.32-0.32,0.36-0.66c0.08-0.53,0.06-1.49,0.06-2.57v-2.1
		c0-1.84,0-2.15-0.03-2.53c-0.03-0.39-0.08-0.64-0.56-0.7c-0.08-0.01-0.24-0.01-0.35-0.01c-0.1,0-0.15-0.04-0.15-0.1
		c0-0.07,0.07-0.1,0.21-0.1c0.59,0,1.42,0.04,1.45,0.04c0.2,0,1.05-0.04,1.44-0.04c0.14,0,0.18,0.04,0.18,0.1
		c0,0.06-0.07,0.1-0.15,0.1c-0.1,0-0.24,0.01-0.38,0.03c-0.39,0.06-0.48,0.28-0.5,0.68c-0.03,0.38-0.01,0.68-0.01,2.53V41.33
		L68.32,41.33z"/>
	<g transform="translate(190.237 11.805)">
		<defs>
			<filter id="Adobe_OpacityMaskFilter" filterUnits="userSpaceOnUse" x="-113.74" y="22.19" width="10.64" height="10.75">
				<feColorMatrix  type="matrix" values="1 0 0 0 0  0 1 0 0 0  0 0 1 0 0  0 0 0 1 0"/>
			</filter>
		</defs>
		<mask maskUnits="userSpaceOnUse" x="-113.74" y="22.19" width="10.64" height="10.75" id="b_1_">
			<g class="st1">
				<path id="a_1_" class="st2" d="M-113.74,22.2h10.64v10.75h-10.64V22.2z"/>
			</g>
		</mask>
		<path class="st3" d="M-107.42,28.33c0.07,0,0.07-0.04,0.06-0.1l-1.33-3.77c-0.07-0.21-0.14-0.21-0.21,0l-1.23,3.77
			c-0.03,0.07,0,0.1,0.04,0.1C-110.09,28.33-107.42,28.33-107.42,28.33z M-110.24,28.83c-0.07,0-0.11,0.04-0.14,0.11l-0.84,2.47
			c-0.13,0.35-0.2,0.68-0.2,0.94c0,0.28,0.27,0.4,0.5,0.4h0.13c0.14,0,0.18,0.03,0.18,0.08c0,0.08-0.13,0.11-0.25,0.11
			c-0.34,0-0.89-0.04-1.05-0.04c-0.15,0-0.92,0.04-1.58,0.04c-0.18,0-0.27-0.03-0.27-0.11c0-0.06,0.07-0.08,0.2-0.08
			c0.1,0,0.22-0.01,0.34-0.03c0.64-0.08,0.92-0.61,1.17-1.31l3.17-8.67c0.17-0.46,0.22-0.54,0.31-0.54c0.08,0,0.14,0.07,0.31,0.5
			c0.21,0.53,2.4,6.3,3.25,8.42c0.5,1.24,0.91,1.47,1.2,1.55c0.21,0.07,0.43,0.08,0.54,0.08c0.08,0,0.15,0.01,0.15,0.08
			c0,0.08-0.13,0.11-0.28,0.11c-0.21,0-1.23,0-2.19-0.03c-0.27-0.01-0.42-0.01-0.42-0.1c0-0.06,0.04-0.08,0.1-0.1
			c0.08-0.03,0.17-0.15,0.08-0.38l-1.3-3.44c-0.03-0.06-0.06-0.08-0.13-0.08H-110.24L-110.24,28.83z"/>
	</g>
	<path class="st0" d="M88.53,43.56c-1.21-1.05-1.52-2.44-1.52-3.62c0-0.8,0.31-2.2,1.43-3.28c0.77-0.74,1.92-1.26,3.82-1.26
		c0.65,0,1.18,0.06,1.87,0.16c0.45,0.07,0.91,0.14,1.25,0.16c0.11,0,0.13,0.07,0.13,0.14c0,0.11-0.04,0.24-0.07,0.69
		c-0.01,0.4-0.01,1.14-0.03,1.31c-0.01,0.2-0.04,0.27-0.11,0.27c-0.1,0-0.11-0.09-0.11-0.27c0-0.41-0.2-0.97-0.55-1.23
		c-0.43-0.37-1.42-0.72-2.51-0.72c-1.58,0-2.3,0.44-2.73,0.82c-0.92,0.84-1.14,1.86-1.14,3.11c0,2.36,1.92,4.43,4.42,4.43
		c0.96,0,1.67-0.1,2.17-0.58c0.25-0.27,0.4-0.62,0.47-1.02c0.03-0.14,0.07-0.21,0.16-0.21c0.07,0,0.07,0.1,0.07,0.2
		c0,0.11-0.19,1.26-0.28,1.58c-0.08,0.23-0.13,0.27-0.33,0.35c-0.5,0.21-1.45,0.28-2.24,0.28C90.82,44.86,89.54,44.43,88.53,43.56"
		/>
	<path class="st0" d="M105.73,44.5c-0.1,0-0.3,0-0.48-0.07c-0.2-0.07-0.61-0.26-1.08-1.38c-0.75-1.77-2.68-6.73-2.88-7.2
		c-0.16-0.4-0.21-0.45-0.28-0.45c-0.1,0-0.14,0.07-0.3,0.48l-2.84,7.48c-0.24,0.6-0.48,1.07-1.09,1.12
		c-0.09,0.01-0.21,0.01-0.28,0.01c-0.11,0-0.17,0.04-0.17,0.1c0,0.07,0.07,0.1,0.23,0.1c0.6,0,1.22-0.04,1.36-0.04
		c0.16,0,0.81,0.04,1.12,0.04c0.1,0,0.21-0.03,0.21-0.1c0-0.06-0.04-0.1-0.17-0.1h-0.1c-0.31,0-0.47-0.11-0.47-0.37
		c0-0.23,0.1-0.61,0.24-1.01l0.63-1.77c0.03-0.07,0.07-0.11,0.14-0.11h2.58c0.06,0,0.08,0.03,0.11,0.07l1.12,2.85
		c0.09,0.21,0,0.28-0.06,0.31c-0.06,0.02-0.1,0.06-0.1,0.1c0,0.07,0.08,0.09,0.35,0.1c0.95,0.03,2.02,0.03,2.16,0.03
		c0.16,0,0.21-0.03,0.21-0.1C105.9,44.53,105.83,44.5,105.73,44.5z M101.92,40.74h-2.27c-0.03,0-0.06-0.03-0.03-0.08l1.06-3.14
		c0.07-0.2,0.08-0.2,0.16,0l1.12,3.14C101.98,40.7,101.98,40.74,101.92,40.74z"/>
	<path class="st0" d="M115.28,36.96c-1.5-1.52-3.83-1.39-5.08-1.39c-0.8,0-1.53,0.04-1.63,0.04c-0.04,0-0.94-0.04-1.52-0.04
		c-0.13,0-0.21,0.03-0.21,0.11c0,0.04,0.07,0.09,0.14,0.09c0.14,0,0.27,0.01,0.41,0.03c0.41,0.08,0.53,0.28,0.55,0.67
		c0.03,0.37,0.03,0.72,0.03,2.6v2.1c0,1.15,0.01,2.12-0.07,2.64c-0.04,0.31-0.13,0.61-0.37,0.65c-0.11,0.03-0.21,0.04-0.33,0.04
		c-0.11,0-0.16,0.06-0.16,0.1c0,0.07,0.07,0.1,0.2,0.1c0.21,0,0.55-0.03,0.82-0.03c0.27-0.01,0.46-0.01,0.48-0.01
		c0.04,0,0.48,0.04,1.02,0.07c0.59,0.05,1.18,0.07,1.78,0.07c2.16,0,3.24-0.84,3.79-1.39c0.7-0.71,1.35-1.89,1.35-3.39
		C116.49,38.58,115.91,37.59,115.28,36.96z M114.33,43.25c-0.74,0.74-1.79,1.11-2.95,1.11c-1.48,0-1.93-0.3-2.09-0.54
		c-0.1-0.13-0.13-0.51-0.14-0.95c0-0.21-0.01-1.32-0.01-2.6v-1.43c0-0.85,0-2.06,0.01-2.47c0-0.13,0.04-0.18,0.16-0.24
		c0.09-0.06,0.53-0.1,0.72-0.1c1.41,0,2.8,0.14,4,1.35c0.48,0.47,1.22,1.45,1.22,3.05C115.26,41.56,114.96,42.63,114.33,43.25z"/>
	<path class="st0" d="M118.96,39.06c0-1.86,0-2.2-0.03-2.58c-0.03-0.4-0.13-0.6-0.54-0.68c-0.11-0.02-0.23-0.03-0.34-0.03
		c-0.1,0-0.19-0.04-0.19-0.09c0-0.08,0.07-0.11,0.21-0.11c0.28,0,0.67,0.03,1.46,0.04c0.07,0,2.6,0,2.88-0.01
		c0.28-0.01,0.44-0.03,0.55-0.07c0.08-0.03,0.1-0.04,0.16-0.04c0.03,0,0.06,0.03,0.06,0.1c0,0.09-0.08,0.28-0.11,0.64
		c-0.02,0.24-0.03,0.47-0.04,0.74c0,0.13-0.03,0.21-0.1,0.21s-0.1-0.06-0.1-0.16c-0.01-0.21-0.06-0.35-0.1-0.45
		c-0.08-0.28-0.21-0.38-0.92-0.43c-0.18-0.01-1.59-0.03-1.62-0.03c-0.04,0-0.07,0.03-0.07,0.11v3.22c0,0.09,0.01,0.14,0.08,0.14
		c0.17,0,1.62-0.02,1.92-0.04c0.33-0.01,0.54-0.06,0.65-0.21c0.06-0.08,0.1-0.11,0.16-0.11c0.03,0,0.06,0.01,0.06,0.08
		s-0.06,0.34-0.1,0.75c-0.04,0.4-0.04,0.68-0.06,0.87c-0.01,0.11-0.04,0.16-0.1,0.16c-0.07,0-0.08-0.09-0.08-0.18
		c0-0.09-0.01-0.23-0.04-0.34c-0.06-0.18-0.14-0.38-0.68-0.43c-0.33-0.03-1.48-0.06-1.7-0.06c-0.09,0-0.1,0.04-0.1,0.1v1.04
		c0,0.44-0.02,1.69,0,1.93c0.03,0.53,0.1,0.8,0.4,0.92c0.21,0.1,0.55,0.13,1.04,0.13c0.27,0,0.72,0.01,1.08-0.08
		c0.43-0.13,0.52-0.41,0.64-0.94c0.03-0.14,0.07-0.2,0.13-0.2c0.08,0,0.08,0.13,0.08,0.21c0,0.1-0.11,0.99-0.16,1.24
		c-0.06,0.28-0.16,0.31-0.62,0.31c-0.94,0-1.33-0.03-1.83-0.03c-0.5-0.01-1.15-0.04-1.68-0.04c-0.33,0-0.6,0.04-0.94,0.04
		c-0.13,0-0.2-0.03-0.2-0.1c0-0.06,0.06-0.1,0.13-0.1c0.09,0,0.19-0.01,0.28-0.04c0.26-0.06,0.43-0.24,0.45-1.12
		c0.01-0.48,0.03-1.06,0.03-2.14L118.96,39.06L118.96,39.06z"/>
	<path class="st0" d="M135.91,43.14c0.04,0.34,0.13,1.14,0.68,1.26c0.24,0.06,0.53,0.09,0.72,0.1c0.06,0,0.19,0.01,0.19,0.09
		s-0.06,0.11-0.21,0.11c-0.26,0-1.79-0.06-2.24-0.08c-0.31-0.03-0.43-0.06-0.43-0.13c0-0.04,0.06-0.1,0.13-0.13
		c0.07-0.03,0.11-0.2,0.08-0.4l-0.62-6.08l-3.01,6.1c-0.27,0.55-0.31,0.68-0.44,0.68c-0.09,0-0.16-0.13-0.43-0.61
		c-0.23-0.41-1.36-2.68-1.45-2.81c-0.08-0.17-1.48-2.92-1.59-3.22l-0.53,5.47c-0.01,0.2-0.01,0.33-0.01,0.54
		c0,0.16,0.07,0.37,0.35,0.43c0.16,0.03,0.26,0.03,0.4,0.04c0.11,0.01,0.14,0.06,0.14,0.09c0,0.1-0.09,0.11-0.24,0.11
		c-0.45,0-1.07-0.04-1.18-0.04c-0.14,0-0.74,0.04-1.09,0.04c-0.13,0-0.21-0.01-0.21-0.11c0-0.03,0.06-0.08,0.19-0.08
		c0.1,0,0.11,0,0.27-0.01c0.34-0.03,0.47-0.37,0.54-0.94l0.95-7.79c0.03-0.24,0.09-0.35,0.16-0.35c0.07,0,0.11,0.04,0.21,0.23
		l3.81,7.37l3.62-7.35c0.07-0.16,0.13-0.24,0.21-0.24c0.08,0,0.13,0.13,0.14,0.35L135.91,43.14z"/>
	<path class="st0" d="M140.81,41.61c0-0.68-0.1-0.94-0.31-1.31c-0.08-0.16-1.73-2.84-2.17-3.45c-0.38-0.54-0.53-0.71-0.72-0.87
		c-0.2-0.14-0.38-0.2-0.67-0.21c-0.09,0-0.16-0.04-0.16-0.11c0-0.04,0.06-0.09,0.17-0.09c0.23,0,1.31,0.04,1.33,0.04
		c0.08,0,0.55-0.04,1.08-0.04c0.14,0,0.18,0.04,0.18,0.08c0,0.06-0.04,0.08-0.16,0.11c-0.2,0.04-0.23,0.11-0.23,0.23
		c0,0.14,0.09,0.28,0.19,0.47c0.18,0.35,2.06,3.36,2.27,3.72c0.23-0.5,1.82-3.09,2.02-3.45c0.27-0.47,0.33-0.6,0.33-0.75
		c0-0.18-0.17-0.18-0.33-0.21c-0.11-0.01-0.16-0.06-0.16-0.11c0-0.04,0.03-0.09,0.17-0.09c0.34,0,0.64,0.04,0.87,0.04
		c0.19,0,1.01-0.04,1.25-0.04c0.13,0,0.17,0.04,0.17,0.08c0,0.07-0.07,0.11-0.17,0.11c-0.3,0.01-0.51,0.04-0.71,0.18
		c-0.21,0.14-0.3,0.27-0.53,0.58c-0.82,1.14-2.2,3.45-2.41,3.95c-0.17,0.44-0.14,0.75-0.14,1.12v1.04c0,0.1,0,0.62,0.03,1.14
		c0.03,0.34,0.06,0.58,0.5,0.67c0.18,0.04,0.43,0.06,0.53,0.06c0.11,0,0.16,0.04,0.16,0.09c0,0.07-0.04,0.11-0.17,0.11
		c-0.71,0-1.59-0.04-1.63-0.04c-0.03,0-0.88,0.04-1.28,0.04c-0.14,0-0.2-0.04-0.2-0.11c0-0.04,0.04-0.09,0.14-0.09
		c0.11,0,0.24-0.01,0.36-0.04c0.24-0.04,0.34-0.34,0.37-0.68c0.04-0.51,0.04-1.02,0.04-1.14L140.81,41.61L140.81,41.61z"/>
	<path class="st0" d="M152.09,38.44c0.17-0.82,0.61-2.26,1.53-3.11c0.65-0.62,1.29-0.8,1.77-0.8c0.37,0,0.72,0.1,0.92,0.28
		c-0.1,0.3-0.37,0.94-0.58,1.22l-0.21,0.1c-0.11-0.3-0.21-0.72-0.28-1.07c-0.04-0.02-0.08-0.03-0.13-0.03
		c-0.51,0-1.39,0.33-2.1,3.41h1.55l-0.24,0.43l-1.45,0.21c-0.34,1.53-0.54,2.5-1.08,4.76c-0.45,1.89-0.91,2.77-1.76,3.53
		c-0.58,0.51-1.09,0.72-1.59,0.72c-0.54,0-0.95-0.31-1.08-0.58l0.51-0.71l0.09-0.03c0.33,0.47,0.75,0.58,1.11,0.58
		c0.41,0,0.97-0.04,1.53-2.37c0.37-1.48,0.67-2.78,1.33-5.93l-1.11-0.23l0.24-0.4H152.09L152.09,38.44z"/>
	<path class="st0" d="M157.8,38.27c-2,0-3.7,2.1-3.69,4.26c0,1.49,0.88,2.31,1.93,2.31c1.96,0,3.68-2.13,3.68-4.19h0
		C159.72,39.36,159.01,38.27,157.8,38.27z M156.13,44.39c-0.55,0-0.99-0.41-0.99-1.6c0-1.55,1.02-4.07,2.54-4.07
		c0.69,0,1.01,0.64,1.01,1.67C158.68,42.1,157.46,44.39,156.13,44.39z"/>
	<path class="st0" d="M161.06,38.82c0.51-0.24,1.43-0.55,1.8-0.55l0.03,0.01c0.01,0.47-0.09,1.29-0.45,2.63h0.06
		c1.16-2.17,2.12-2.64,2.78-2.64c0.23,0,0.4,0.06,0.51,0.16c-0.01,0.21-0.44,1.35-0.67,1.69l-0.23,0.11
		c-0.07-0.3-0.13-0.68-0.2-1.11c-0.03-0.01-0.06-0.01-0.11-0.01c-0.34,0-1.21,0.72-2.22,3.04c-0.28,0.64-0.47,1.25-0.84,2.51
		l-0.97,0.11c0.77-2.44,1.38-4.86,1.42-5.54l-1.04-0.11L161.06,38.82z"/>
</g>
<g>
	<path class="st0" d="M0.85,54.99c0-2.31,0-2.73-0.03-3.2c-0.03-0.5-0.15-0.74-0.64-0.84c-0.12-0.03-0.37-0.05-0.5-0.05
		c-0.06,0-0.12-0.03-0.12-0.09c0-0.09,0.07-0.12,0.24-0.12c0.34,0,0.74,0,1.07,0.01l0.61,0.03c0.1,0,3.05,0,3.4-0.01
		c0.28-0.01,0.52-0.05,0.64-0.07c0.07-0.01,0.13-0.07,0.21-0.07c0.04,0,0.06,0.06,0.06,0.13c0,0.1-0.07,0.28-0.12,0.7
		c-0.01,0.15-0.04,0.8-0.07,0.98c-0.01,0.07-0.04,0.16-0.1,0.16c-0.09,0-0.12-0.07-0.12-0.19c0-0.1-0.01-0.36-0.09-0.53
		c-0.1-0.24-0.25-0.42-1.05-0.5c-0.25-0.03-1.87-0.04-2.03-0.04c-0.06,0-0.09,0.04-0.09,0.15v4.09c0,0.1,0.01,0.15,0.09,0.15
		c0.19,0,2.02,0,2.36-0.03c0.36-0.03,0.56-0.06,0.7-0.21c0.1-0.12,0.16-0.19,0.22-0.19c0.04,0,0.07,0.03,0.07,0.12
		c0,0.09-0.07,0.34-0.12,0.83c-0.03,0.3-0.06,0.85-0.06,0.95c0,0.12,0,0.28-0.1,0.28c-0.07,0-0.1-0.06-0.1-0.13
		c0-0.15,0-0.3-0.06-0.49c-0.06-0.21-0.19-0.46-0.77-0.52c-0.4-0.04-1.87-0.07-2.12-0.07c-0.07,0-0.1,0.04-0.1,0.1v1.3
		c0,0.5-0.01,2.22,0,2.54c0.04,1.02,0.27,1.22,1.72,1.22c0.39,0,1.04,0,1.42-0.16c0.39-0.16,0.56-0.46,0.67-1.07
		c0.03-0.16,0.06-0.22,0.13-0.22c0.09,0,0.09,0.12,0.09,0.22c0,0.12-0.12,1.13-0.19,1.44c-0.1,0.39-0.22,0.39-0.8,0.39
		c-1.11,0-1.93-0.03-2.51-0.04c-0.58-0.03-0.93-0.04-1.16-0.04c-0.03,0-0.28,0-0.59,0.01c-0.3,0-0.64,0.03-0.86,0.03
		c-0.16,0-0.24-0.03-0.24-0.12c0-0.04,0.03-0.09,0.12-0.09c0.13,0,0.31-0.03,0.44-0.06c0.3-0.06,0.37-0.39,0.43-0.82
		c0.07-0.62,0.07-1.79,0.07-3.22L0.85,54.99L0.85,54.99z"/>
	<path class="st0" d="M16.54,53.8c-1.54-1.56-3.93-1.44-5.23-1.44c-0.77,0-1.6,0.03-1.75,0.03c-0.07,0-0.92-0.03-1.51-0.03
		c-0.15,0-0.21,0.03-0.21,0.1c0,0.04,0.06,0.1,0.1,0.1c0.15,0,0.3,0.01,0.44,0.03c0.43,0.06,0.5,0.27,0.53,0.7
		c0.03,0.4,0.03,0.76,0.03,2.71v2.22c0,1.22,0,2.21-0.07,2.73c-0.06,0.37-0.09,0.61-0.34,0.67c-0.12,0.03-0.28,0.06-0.4,0.06
		c-0.07,0-0.1,0.06-0.1,0.1c0,0.07,0.07,0.1,0.21,0.1c0.21,0,0.52-0.01,0.79-0.03c0.27,0,0.5-0.01,0.53-0.01
		c0.06,0,0.5,0.03,1.07,0.07c0.56,0.03,1.26,0.07,1.82,0.07c2.22,0,3.4-0.87,3.96-1.45c0.73-0.74,1.41-1.96,1.41-3.54
		C17.82,55.51,17.19,54.45,16.54,53.8z M15.52,60.38c-0.79,0.74-1.85,1.14-3.05,1.14c-1.54,0-2-0.27-2.16-0.5
		c-0.1-0.13-0.13-0.59-0.15-0.9c-0.01-0.24-0.01-1.41-0.01-2.74h0v-4.21c0-0.15,0.04-0.21,0.16-0.25c0.12-0.05,0.53-0.09,0.79-0.09
		c1.56,0,2.99,0.16,4.23,1.41c0.53,0.53,1.23,1.56,1.23,3.16C16.54,58.55,16.2,59.75,15.52,60.38z"/>
	<g transform="translate(86.23 59.688)">
		<defs>
			<filter id="Adobe_OpacityMaskFilter_1_" filterUnits="userSpaceOnUse" x="-67.23" y="-7.21" width="9.69" height="9.57">
				<feColorMatrix  type="matrix" values="1 0 0 0 0  0 1 0 0 0  0 0 1 0 0  0 0 0 1 0"/>
			</filter>
		</defs>
		<mask maskUnits="userSpaceOnUse" x="-67.23" y="-7.21" width="9.69" height="9.57" id="d_1_">
			<g class="st4">
				<path id="c_1_" class="st2" d="M-67.23-7.21h9.69v9.57h-9.69V-7.21z"/>
			</g>
		</mask>
		<path class="st5" d="M-66.13-3.61c0-1.93,0-2.28-0.03-2.68c-0.03-0.4-0.1-0.63-0.53-0.69c-0.15-0.02-0.29-0.03-0.44-0.03
			c-0.04,0-0.1-0.06-0.1-0.1c0-0.07,0.06-0.1,0.2-0.1c0.59,0,1.36,0.03,1.48,0.03c0.12,0,0.92-0.03,1.3-0.03
			c0.15,0,0.22,0.03,0.22,0.1c0,0.04-0.06,0.1-0.12,0.1c-0.09,0-0.16,0-0.32,0.03c-0.34,0.06-0.41,0.28-0.44,0.69
			c-0.03,0.4-0.03,0.75-0.03,2.68v1.74c0,1.8,0.4,2.55,0.95,3.04c0.63,0.57,1.19,0.67,1.92,0.67c0.79,0,1.55-0.35,1.99-0.88
			c0.6-0.72,0.73-1.74,0.73-3.01v-1.57c0-1.93-0.01-2.28-0.03-2.68c-0.01-0.4-0.09-0.63-0.51-0.69c-0.15-0.02-0.29-0.03-0.44-0.03
			c-0.06,0-0.1-0.06-0.1-0.1c0-0.07,0.06-0.1,0.2-0.1c0.57,0,1.32,0.03,1.39,0.03c0.09,0,0.7-0.03,1.08-0.03
			c0.15,0,0.2,0.03,0.2,0.1c0,0.04-0.04,0.1-0.1,0.1c-0.09,0-0.16,0-0.32,0.03c-0.35,0.07-0.42,0.28-0.45,0.69
			c-0.03,0.4-0.01,0.75-0.01,2.68v1.33c0,1.35-0.18,2.85-1.2,3.73c-0.94,0.8-1.93,0.91-2.69,0.91c-0.42,0-1.77-0.03-2.68-0.88
			c-0.63-0.59-1.13-1.45-1.13-3.26L-66.13-3.61L-66.13-3.61z"/>
	</g>
	<g transform="translate(128.68 58.878)">
		<defs>
			<filter id="Adobe_OpacityMaskFilter_2_" filterUnits="userSpaceOnUse" x="-98.91" y="-6.58" width="8.77" height="9.74">
				<feColorMatrix  type="matrix" values="1 0 0 0 0  0 1 0 0 0  0 0 1 0 0  0 0 0 1 0"/>
			</filter>
		</defs>
		<mask maskUnits="userSpaceOnUse" x="-98.91" y="-6.58" width="8.77" height="9.74" id="f_2_">
			<g class="st6">
				<path id="e_2_" class="st2" d="M-98.91-6.58h8.76v9.74h-8.76V-6.58z"/>
			</g>
		</mask>
		<path class="st7" d="M-97.35,1.84c-1.26-1.08-1.57-2.5-1.57-3.69c0-0.83,0.31-2.28,1.45-3.39c0.78-0.75,1.95-1.33,3.92-1.33
			c0.51,0,1.24,0.04,1.87,0.15c0.48,0.09,0.89,0.18,1.32,0.19c0.13,0,0.16,0.06,0.16,0.13c0,0.1-0.03,0.25-0.06,0.7
			c-0.01,0.41-0.01,1.1-0.03,1.27c-0.01,0.19-0.07,0.26-0.15,0.26c-0.09,0-0.1-0.09-0.1-0.26c0-0.48-0.2-0.98-0.54-1.24
			c-0.45-0.38-1.39-0.69-2.53-0.69c-1.65,0-2.44,0.44-2.9,0.86c-0.95,0.88-1.16,1.99-1.16,3.25c0,2.39,1.89,4.51,4.64,4.51
			c0.97,0,1.61-0.07,2.12-0.59c0.28-0.28,0.45-0.8,0.5-1.04c0.03-0.13,0.04-0.18,0.13-0.18c0.06,0,0.12,0.09,0.12,0.18
			s-0.18,1.17-0.31,1.6c-0.07,0.23-0.1,0.28-0.32,0.37c-0.53,0.2-1.49,0.28-2.33,0.28C-95.04,3.17-96.34,2.71-97.35,1.84"/>
	</g>
	<path class="st0" d="M45.32,57.9c0.06,0,0.06-0.03,0.04-0.09l-1.27-3.41c-0.07-0.19-0.15-0.19-0.22,0l-1.2,3.41
		c-0.01,0.06,0,0.09,0.04,0.09H45.32z M43.88,52.72c0.16-0.41,0.22-0.48,0.31-0.48c0.13,0,0.18,0.18,0.31,0.45
		c0.23,0.53,2.3,5.66,3.09,7.55c0.47,1.11,0.82,1.27,1.1,1.36c0.17,0.05,0.34,0.07,0.51,0.07c0.07,0,0.16,0.03,0.16,0.1
		c0,0.07-0.15,0.1-0.29,0.1c-0.19,0-1.14,0-2.03-0.03c-0.25-0.02-0.45-0.02-0.45-0.09c0-0.06,0.03-0.06,0.09-0.09
		c0.07-0.03,0.21-0.13,0.12-0.34l-1.16-2.85c-0.03-0.06-0.04-0.07-0.12-0.07h-2.97c-0.06,0-0.1,0.03-0.13,0.1l-0.73,1.99
		c-0.12,0.31-0.19,0.61-0.19,0.83c0,0.25,0.22,0.34,0.44,0.34h0.12c0.1,0,0.13,0.04,0.13,0.1c0,0.07-0.07,0.1-0.19,0.1
		c-0.31,0-1.01-0.04-1.16-0.04c-0.13,0-0.78,0.04-1.3,0.04c-0.16,0-0.25-0.03-0.25-0.1c0-0.06,0.06-0.1,0.12-0.1
		c0.09,0,0.28-0.01,0.38-0.03c0.59-0.07,0.83-0.51,1.08-1.14L43.88,52.72L43.88,52.72z M53.33,58.27c0,1.2,0,2.18,0.06,2.69
		c0.04,0.37,0.1,0.6,0.5,0.66c0.18,0.03,0.47,0.06,0.59,0.06c0.09,0,0.1,0.06,0.1,0.1c0,0.06-0.06,0.1-0.2,0.1
		c-0.7,0-1.52-0.04-1.6-0.04c-0.06,0-0.95,0.04-1.33,0.04c-0.15,0-0.21-0.03-0.21-0.1c0-0.04,0.03-0.09,0.1-0.09
		c0.12,0,0.26-0.03,0.38-0.06c0.26-0.06,0.34-0.31,0.38-0.67c0.06-0.51,0.06-1.49,0.06-2.69v-5.22l-1.86,0.03
		c-0.8,0.01-1.11,0.1-1.3,0.4c-0.15,0.22-0.16,0.31-0.2,0.4c-0.03,0.1-0.07,0.12-0.13,0.12c-0.03,0-0.09-0.03-0.09-0.1
		c0-0.13,0.26-1.24,0.28-1.35c0.03-0.07,0.09-0.23,0.13-0.23c0.09,0,0.22,0.1,0.57,0.15c0.37,0.04,0.86,0.06,1.01,0.06h4.86
		c0.42,0,0.72-0.03,0.92-0.06c0.19-0.03,0.31-0.06,0.37-0.06s0.06,0.07,0.06,0.15c0,0.38-0.04,1.27-0.04,1.42
		c0,0.1-0.06,0.16-0.12,0.16c-0.06,0-0.09-0.04-0.1-0.22l-0.01-0.13c-0.04-0.38-0.32-0.66-1.55-0.69l-1.61-0.03L53.33,58.27
		L53.33,58.27z M60.45,58.27c0,1.2,0,2.18,0.06,2.69c0.04,0.37,0.09,0.6,0.47,0.66c0.19,0.03,0.47,0.06,0.59,0.06
		c0.07,0,0.1,0.06,0.1,0.1c0,0.06-0.06,0.1-0.2,0.1c-0.72,0-1.55-0.04-1.61-0.04c-0.07,0-0.88,0.04-1.27,0.04
		c-0.13,0-0.21-0.03-0.21-0.1c0-0.04,0.03-0.1,0.1-0.1c0.12,0,0.28-0.03,0.4-0.06c0.25-0.06,0.29-0.29,0.34-0.66
		c0.06-0.51,0.07-1.49,0.07-2.69v-2.19c0-1.93,0-2.28-0.03-2.68c-0.03-0.42-0.13-0.61-0.41-0.67c-0.13-0.03-0.26-0.04-0.4-0.04
		c-0.06,0-0.1-0.06-0.1-0.1c0-0.07,0.06-0.1,0.21-0.1c0.42,0,1.23,0.03,1.3,0.03c0.06,0,0.89-0.03,1.29-0.03
		c0.15,0,0.2,0.03,0.2,0.1c0,0.04-0.06,0.1-0.1,0.1c-0.09,0-0.18,0-0.32,0.03c-0.35,0.07-0.42,0.25-0.45,0.69
		c-0.01,0.4-0.01,0.75-0.01,2.68L60.45,58.27L60.45,58.27z"/>
	<g transform="translate(259.035 58.878)">
		<defs>
			<filter id="Adobe_OpacityMaskFilter_3_" filterUnits="userSpaceOnUse" x="-196.16" y="-6.58" width="10.2" height="9.74">
				<feColorMatrix  type="matrix" values="1 0 0 0 0  0 1 0 0 0  0 0 1 0 0  0 0 0 1 0"/>
			</filter>
		</defs>
		<mask maskUnits="userSpaceOnUse" x="-196.16" y="-6.58" width="10.2" height="9.74" id="h_2_">
			<g class="st8">
				<path id="g_2_" class="st2" d="M-196.16-6.58h10.2v9.74h-10.2L-196.16-6.58z"/>
			</g>
		</mask>
		<path class="st9" d="M-190.76,2.66c1.16,0,3.48-0.61,3.48-4.21c0-2.99-1.81-4.55-3.85-4.55c-2.15,0-3.7,1.35-3.7,4.05
			C-194.83,0.84-193.09,2.66-190.76,2.66 M-191.05-6.58c2.9,0,5.09,1.77,5.09,4.67c0,2.78-2.06,5.08-5.17,5.08
			c-3.53,0-5.03-2.65-5.03-4.89C-196.16-3.72-194.61-6.58-191.05-6.58"/>
	</g>
	<path class="st0" d="M76.26,60.19c0.03,1.02,0.15,1.33,0.5,1.42c0.23,0.06,0.53,0.07,0.64,0.07c0.06,0,0.1,0.04,0.1,0.1
		c0,0.07-0.09,0.1-0.23,0.1c-0.73,0-1.24-0.04-1.36-0.04c-0.12,0-0.66,0.04-1.24,0.04c-0.13,0-0.2-0.01-0.2-0.1
		c0-0.06,0.04-0.1,0.1-0.1c0.1,0,0.34-0.01,0.53-0.07c0.32-0.09,0.37-0.42,0.37-1.55v-7.13c0-0.5,0.07-0.63,0.18-0.63
		c0.15,0,0.37,0.25,0.5,0.38c0.2,0.2,2.08,2.19,4.07,4.24c1.27,1.32,2.65,2.79,3.04,3.2l-0.13-6.23c-0.01-0.8-0.09-1.08-0.48-1.16
		c-0.21-0.04-0.42-0.06-0.63-0.06c-0.09,0-0.1-0.07-0.1-0.12c0-0.07,0.1-0.09,0.25-0.09c0.59,0,1.2,0.03,1.35,0.03
		c0.15,0,0.57-0.03,1.1-0.03c0.13,0,0.23,0.01,0.23,0.09c0,0.04-0.06,0.12-0.15,0.12c-0.06,0-0.16,0-0.31,0.03
		c-0.42,0.09-0.45,0.34-0.45,1.08l-0.03,7.29c0,0.82-0.01,0.89-0.1,0.89c-0.13,0-0.26-0.1-0.98-0.76c-0.13-0.12-1.99-1.95-3.35-3.37
		c-1.49-1.57-2.94-3.09-3.34-3.53L76.26,60.19z M91.32,57.9c0.06,0,0.06-0.03,0.04-0.09l-1.27-3.41c-0.07-0.19-0.15-0.19-0.22,0
		l-1.2,3.41c-0.01,0.06,0,0.09,0.04,0.09H91.32z M89.89,52.72c0.16-0.41,0.22-0.48,0.31-0.48c0.13,0,0.18,0.18,0.31,0.45
		c0.23,0.53,2.3,5.66,3.09,7.55c0.47,1.11,0.82,1.27,1.1,1.36c0.17,0.05,0.34,0.07,0.51,0.07c0.07,0,0.16,0.03,0.16,0.1
		c0,0.07-0.15,0.1-0.29,0.1c-0.19,0-1.14,0-2.03-0.03c-0.25-0.02-0.45-0.02-0.45-0.09c0-0.06,0.03-0.06,0.09-0.09
		c0.07-0.03,0.21-0.13,0.12-0.34l-1.16-2.85c-0.03-0.06-0.04-0.07-0.12-0.07h-2.97c-0.06,0-0.1,0.03-0.13,0.1l-0.73,1.99
		c-0.12,0.31-0.19,0.61-0.19,0.83c0,0.25,0.22,0.34,0.44,0.34h0.12c0.1,0,0.13,0.04,0.13,0.1c0,0.07-0.07,0.1-0.19,0.1
		c-0.31,0-1.01-0.04-1.16-0.04c-0.13,0-0.78,0.04-1.3,0.04c-0.16,0-0.25-0.03-0.25-0.1c0-0.06,0.06-0.1,0.12-0.1
		c0.09,0,0.28-0.01,0.38-0.03c0.58-0.07,0.83-0.51,1.08-1.14L89.89,52.72L89.89,52.72z M98.55,58.3c0,1.83,0.03,2.58,0.26,2.79
		c0.2,0.2,0.7,0.29,1.71,0.29c0.67,0,1.24-0.01,1.55-0.38c0.16-0.19,0.26-0.45,0.31-0.7c0.01-0.09,0.06-0.16,0.13-0.16
		c0.06,0,0.09,0.06,0.09,0.19c0,0.13-0.09,0.88-0.19,1.24c-0.09,0.29-0.13,0.34-0.82,0.34c-0.92,0-1.64-0.01-2.24-0.04
		c-0.59-0.01-1.02-0.03-1.4-0.03c-0.06,0-0.28,0-0.53,0.01c-0.26,0.01-0.54,0.03-0.75,0.03c-0.13,0-0.21-0.03-0.21-0.1
		c0-0.04,0.03-0.1,0.1-0.1c0.12,0,0.28-0.03,0.4-0.06c0.25-0.06,0.28-0.29,0.34-0.66c0.07-0.51,0.07-1.49,0.07-2.69v-2.19
		c0-1.93,0-2.28-0.03-2.68c-0.03-0.42-0.1-0.63-0.53-0.69c-0.15-0.02-0.29-0.03-0.44-0.03c-0.04,0-0.1-0.06-0.1-0.1
		c0-0.07,0.06-0.1,0.2-0.1c0.59,0,1.39,0.03,1.46,0.03c0.06,0,1.02-0.03,1.42-0.03c0.13,0,0.2,0.03,0.2,0.1
		c0,0.04-0.06,0.09-0.1,0.09c-0.09,0-0.28,0.01-0.42,0.03c-0.38,0.07-0.45,0.26-0.48,0.7c-0.01,0.4-0.01,0.75-0.01,2.68L98.55,58.3
		L98.55,58.3z M111.47,56.34c0,0.07,0.03,0.13,0.1,0.18c0.22,0.13,0.89,0.23,1.54,0.23c0.35,0,0.76-0.04,1.1-0.28
		c0.51-0.35,0.89-1.14,0.89-2.25c0-1.83-0.97-2.93-2.53-2.93c-0.44,0-0.83,0.04-0.98,0.09c-0.07,0.03-0.12,0.09-0.12,0.18
		L111.47,56.34L111.47,56.34z M110.3,55.07c0-2.28,0-2.69-0.03-3.16c-0.03-0.5-0.15-0.73-0.63-0.83c-0.12-0.03-0.37-0.04-0.5-0.04
		c-0.06,0-0.12-0.03-0.12-0.09c0-0.09,0.07-0.12,0.23-0.12c0.66,0,1.58,0.04,1.65,0.04c0.16,0,1.27-0.04,1.73-0.04
		c0.92,0,1.9,0.09,2.68,0.64c0.37,0.26,1.01,0.98,1.01,1.99c0,1.08-0.45,2.17-1.77,3.38c1.2,1.54,2.19,2.84,3.04,3.75
		c0.79,0.83,1.42,1,1.79,1.05c0.19,0.03,0.38,0.04,0.57,0.04c0.07,0,0.13,0.04,0.13,0.09c0,0.09-0.09,0.12-0.35,0.12h-1.04
		c-0.82,0-1.19-0.07-1.57-0.28c-0.63-0.34-1.14-1.05-1.98-2.15c-0.61-0.8-1.3-1.78-1.6-2.17c-0.06-0.06-0.1-0.09-0.19-0.09
		l-1.8-0.03c-0.07,0-0.1,0.04-0.1,0.12v0.35c0,1.4,0,2.56,0.07,3.18c0.04,0.42,0.13,0.75,0.57,0.8c0.2,0.03,0.53,0.06,0.66,0.06
		c0.09,0,0.12,0.04,0.12,0.09c0,0.07-0.07,0.12-0.23,0.12c-0.81,0-1.73-0.04-1.8-0.04c-0.01,0-0.94,0.04-1.38,0.04
		c-0.16,0-0.23-0.03-0.23-0.12c0-0.04,0.03-0.09,0.12-0.09c0.13,0,0.31-0.03,0.44-0.06c0.29-0.06,0.37-0.38,0.42-0.8
		c0.07-0.61,0.07-1.77,0.07-3.18L110.3,55.07L110.3,55.07z M121.79,56.08c0-1.93,0-2.28-0.03-2.68c-0.03-0.42-0.1-0.63-0.53-0.69
		c-0.15-0.02-0.29-0.03-0.44-0.03c-0.04,0-0.1-0.06-0.1-0.1c0-0.07,0.06-0.1,0.2-0.1c0.59,0,1.42,0.03,1.49,0.03
		c0.09,0,2.78,0.02,3.07,0c0.25-0.01,0.48-0.06,0.59-0.07c0.06-0.01,0.12-0.06,0.18-0.06c0.04,0,0.06,0.06,0.06,0.12
		c0,0.09-0.07,0.23-0.1,0.58c-0.01,0.12-0.04,0.67-0.07,0.82c-0.01,0.06-0.06,0.13-0.12,0.13c-0.07,0-0.1-0.06-0.1-0.16
		c0-0.09-0.01-0.29-0.07-0.44c-0.09-0.21-0.22-0.29-0.92-0.38c-0.22-0.03-1.71-0.04-1.86-0.04c-0.06,0-0.07,0.04-0.07,0.13v3.38
		c0,0.09,0,0.13,0.07,0.13c0.16,0,1.86,0,2.15-0.03c0.31-0.03,0.5-0.04,0.63-0.18c0.09-0.09,0.15-0.16,0.19-0.16s0.07,0.03,0.07,0.1
		c0,0.07-0.07,0.28-0.1,0.69c-0.03,0.25-0.06,0.72-0.06,0.8c0,0.1-0.03,0.23-0.12,0.23c-0.06,0-0.09-0.04-0.09-0.12
		c0-0.12,0-0.25-0.06-0.41c-0.04-0.18-0.16-0.32-0.66-0.38c-0.35-0.04-1.73-0.06-1.95-0.06c-0.07,0-0.09,0.04-0.09,0.09v1.04
		c0,0.42-0.02,1.87,0,2.12c0.03,0.83,0.26,1,1.54,1c0.34,0,0.95,0,1.29-0.13c0.34-0.15,0.51-0.37,0.59-0.86
		c0.03-0.15,0.06-0.19,0.13-0.19c0.07,0,0.09,0.1,0.09,0.19s-0.1,0.94-0.18,1.2c-0.09,0.32-0.22,0.32-0.72,0.32
		c-0.97,0-1.71-0.03-2.24-0.04c-0.54-0.03-0.88-0.03-1.07-0.03c-0.03,0-0.28,0-0.56,0.01c-0.25,0.01-0.54,0.03-0.75,0.03
		c-0.13,0-0.2-0.03-0.2-0.1c0-0.04,0.03-0.1,0.1-0.1c0.12,0,0.28-0.04,0.4-0.06c0.25-0.04,0.28-0.29,0.34-0.66
		c0.07-0.51,0.07-1.49,0.07-2.69L121.79,56.08L121.79,56.08z"/>
	<g transform="translate(517.933 58.878)">
		<defs>
			<filter id="Adobe_OpacityMaskFilter_4_" filterUnits="userSpaceOnUse" x="-389.67" y="-6.59" width="5.31" height="9.76">
				<feColorMatrix  type="matrix" values="1 0 0 0 0  0 1 0 0 0  0 0 1 0 0  0 0 0 1 0"/>
			</filter>
		</defs>
		<mask maskUnits="userSpaceOnUse" x="-389.67" y="-6.59" width="5.31" height="9.76" id="j_2_">
			<g class="st10">
				<path id="i_2_" class="st2" d="M-389.67-6.59h5.31v9.76h-5.31L-389.67-6.59z"/>
			</g>
		</mask>
		<path class="st11" d="M-389.48,2.83c-0.18-0.09-0.19-0.13-0.19-0.47c0-0.61,0.06-1.11,0.07-1.32c0-0.13,0.03-0.2,0.1-0.2
			c0.07,0,0.12,0.04,0.12,0.15c0,0.1,0,0.28,0.04,0.45c0.2,0.91,1.17,1.23,2.03,1.23c1.27,0,1.93-0.72,1.93-1.65
			c0-0.89-0.48-1.32-1.62-2.17l-0.58-0.44c-1.39-1.04-1.84-1.8-1.84-2.66c0-1.46,1.16-2.34,2.85-2.34c0.51,0,1.02,0.07,1.33,0.15
			c0.25,0.06,0.35,0.06,0.45,0.06c0.1,0,0.13,0.01,0.13,0.09c0,0.06-0.06,0.47-0.06,1.32c0,0.19-0.02,0.28-0.1,0.28
			c-0.09,0-0.1-0.06-0.12-0.16c-0.01-0.15-0.12-0.48-0.19-0.61c-0.09-0.15-0.51-0.61-1.67-0.61c-0.94,0-1.71,0.47-1.71,1.35
			c0,0.79,0.4,1.24,1.67,2.11l0.37,0.25c1.57,1.07,2.11,1.93,2.11,3c0,0.73-0.28,1.52-1.2,2.12c-0.54,0.35-1.35,0.44-2.05,0.44
			C-388.2,3.17-388.95,3.08-389.48,2.83"/>
	</g>
	<path class="st0" d="M136.46,56.08c0-1.93,0-2.28-0.03-2.68c-0.03-0.42-0.1-0.63-0.53-0.69c-0.15-0.02-0.29-0.03-0.44-0.03
		c-0.04,0-0.1-0.06-0.1-0.1c0-0.07,0.06-0.1,0.2-0.1c0.59,0,1.42,0.03,1.49,0.03c0.09,0,2.78,0.02,3.07,0
		c0.25-0.01,0.48-0.06,0.59-0.07c0.06-0.01,0.12-0.06,0.18-0.06c0.04,0,0.06,0.06,0.06,0.12c0,0.09-0.07,0.23-0.1,0.58
		c-0.01,0.12-0.04,0.67-0.07,0.82c-0.01,0.06-0.06,0.13-0.12,0.13c-0.07,0-0.1-0.06-0.1-0.16c0-0.09-0.01-0.29-0.07-0.44
		c-0.09-0.21-0.22-0.29-0.92-0.38c-0.22-0.03-1.71-0.04-1.86-0.04c-0.06,0-0.07,0.04-0.07,0.13v3.38c0,0.09,0,0.13,0.07,0.13
		c0.16,0,1.86,0,2.15-0.03c0.31-0.03,0.5-0.04,0.63-0.18c0.09-0.09,0.15-0.16,0.19-0.16c0.04,0,0.07,0.03,0.07,0.1
		c0,0.07-0.07,0.28-0.1,0.69c-0.03,0.25-0.06,0.72-0.06,0.8c0,0.1-0.03,0.23-0.12,0.23c-0.06,0-0.09-0.04-0.09-0.12
		c0-0.12,0-0.25-0.06-0.41c-0.04-0.18-0.16-0.32-0.66-0.38c-0.35-0.04-1.73-0.06-1.95-0.06c-0.07,0-0.09,0.04-0.09,0.09v1.04
		c0,0.42-0.02,1.87,0,2.12c0.03,0.83,0.26,1,1.54,1c0.34,0,0.95,0,1.29-0.13c0.34-0.15,0.51-0.37,0.59-0.86
		c0.03-0.15,0.06-0.19,0.13-0.19c0.07,0,0.09,0.1,0.09,0.19s-0.1,0.94-0.18,1.2c-0.09,0.32-0.22,0.32-0.72,0.32
		c-0.97,0-1.71-0.03-2.24-0.04c-0.54-0.03-0.88-0.03-1.07-0.03c-0.03,0-0.28,0-0.56,0.01c-0.25,0.01-0.54,0.03-0.75,0.03
		c-0.13,0-0.2-0.03-0.2-0.1c0-0.04,0.03-0.1,0.1-0.1c0.12,0,0.28-0.04,0.4-0.06c0.25-0.04,0.28-0.29,0.34-0.66
		c0.07-0.51,0.07-1.49,0.07-2.69L136.46,56.08L136.46,56.08z M148.24,57.9c0.06,0,0.06-0.03,0.04-0.09l-1.27-3.41
		c-0.07-0.19-0.15-0.19-0.22,0l-1.2,3.41c-0.01,0.06,0,0.09,0.04,0.09H148.24L148.24,57.9z M146.81,52.72
		c0.16-0.41,0.22-0.48,0.31-0.48c0.13,0,0.18,0.18,0.31,0.45c0.23,0.53,2.3,5.66,3.09,7.55c0.47,1.11,0.82,1.27,1.1,1.36
		c0.17,0.05,0.34,0.07,0.51,0.07c0.07,0,0.16,0.03,0.16,0.1c0,0.07-0.15,0.1-0.29,0.1c-0.19,0-1.14,0-2.03-0.03
		c-0.25-0.02-0.45-0.02-0.45-0.09c0-0.06,0.03-0.06,0.09-0.09c0.07-0.03,0.2-0.13,0.12-0.34l-1.16-2.85
		c-0.03-0.06-0.04-0.07-0.12-0.07h-2.97c-0.06,0-0.1,0.03-0.13,0.1l-0.73,1.99c-0.12,0.31-0.19,0.61-0.19,0.83
		c0,0.25,0.22,0.34,0.44,0.34h0.12c0.1,0,0.13,0.04,0.13,0.1c0,0.07-0.07,0.1-0.19,0.1c-0.31,0-1.01-0.04-1.16-0.04
		c-0.13,0-0.78,0.04-1.3,0.04c-0.16,0-0.25-0.03-0.25-0.1c0-0.06,0.06-0.1,0.12-0.1c0.09,0,0.28-0.01,0.38-0.03
		c0.59-0.07,0.83-0.51,1.08-1.14L146.81,52.72L146.81,52.72z M155.41,57.13c0,0.07,0.03,0.12,0.09,0.16
		c0.19,0.1,0.85,0.19,1.42,0.19c0.31,0,0.66-0.01,0.97-0.22c0.44-0.29,0.78-0.95,0.78-1.9c0-1.55-0.85-2.44-2.22-2.44
		c-0.38,0-0.79,0.04-0.92,0.07c-0.06,0.03-0.1,0.07-0.1,0.15V57.13z M154.29,56.08c0-1.93,0-2.28-0.03-2.68
		c-0.03-0.42-0.1-0.63-0.53-0.69c-0.15-0.02-0.29-0.03-0.44-0.03c-0.04,0-0.1-0.06-0.1-0.1c0-0.07,0.06-0.1,0.2-0.1
		c0.59,0,1.45,0.03,1.52,0.03c0.13,0,1.21-0.03,1.61-0.03c0.82,0,1.73,0.07,2.4,0.54c0.32,0.23,0.89,0.83,0.89,1.7
		c0,0.92-0.38,1.81-1.58,2.84c1.05,1.32,1.95,2.44,2.69,3.22c0.69,0.7,1.11,0.82,1.43,0.86c0.25,0.04,0.38,0.04,0.45,0.04
		c0.07,0,0.12,0.06,0.12,0.1c0,0.07-0.07,0.1-0.31,0.1h-0.8c-0.73,0-1.05-0.07-1.38-0.25c-0.56-0.29-1.02-0.89-1.76-1.83
		c-0.54-0.67-1.11-1.48-1.39-1.81c-0.06-0.06-0.09-0.07-0.18-0.07l-1.64-0.03c-0.06,0-0.09,0.03-0.09,0.1v0.29
		c0,1.2,0,2.17,0.06,2.68c0.04,0.37,0.12,0.6,0.51,0.66c0.18,0.03,0.45,0.06,0.57,0.06c0.09,0,0.1,0.06,0.1,0.1
		c0,0.06-0.06,0.1-0.21,0.1c-0.7,0-1.52-0.04-1.58-0.04c-0.01,0-0.88,0.04-1.27,0.04c-0.13,0-0.2-0.03-0.2-0.1
		c0-0.04,0.03-0.1,0.1-0.1c0.12,0,0.28-0.03,0.39-0.06c0.25-0.06,0.28-0.29,0.34-0.66c0.07-0.51,0.07-1.49,0.07-2.69L154.29,56.08
		L154.29,56.08z"/>
	<g transform="translate(653.718 58.878)">
		<defs>
			<filter id="Adobe_OpacityMaskFilter_5_" filterUnits="userSpaceOnUse" x="-491.32" y="-6.58" width="8.77" height="9.74">
				<feColorMatrix  type="matrix" values="1 0 0 0 0  0 1 0 0 0  0 0 1 0 0  0 0 0 1 0"/>
			</filter>
		</defs>
		<mask maskUnits="userSpaceOnUse" x="-491.32" y="-6.58" width="8.77" height="9.74" id="l_2_">
			<g class="st12">
				<path id="k_2_" class="st2" d="M-491.32-6.58h8.76v9.74h-8.76L-491.32-6.58z"/>
			</g>
		</mask>
		<path class="st13" d="M-489.75,1.84c-1.26-1.08-1.57-2.5-1.57-3.69c0-0.83,0.31-2.28,1.45-3.39c0.77-0.75,1.95-1.33,3.92-1.33
			c0.51,0,1.24,0.04,1.87,0.15c0.48,0.09,0.89,0.18,1.32,0.19c0.13,0,0.16,0.06,0.16,0.13c0,0.1-0.03,0.25-0.06,0.7
			c-0.01,0.41-0.01,1.1-0.03,1.27c-0.01,0.19-0.07,0.26-0.15,0.26c-0.09,0-0.1-0.09-0.1-0.26c0-0.48-0.2-0.98-0.54-1.24
			c-0.45-0.38-1.39-0.69-2.53-0.69c-1.65,0-2.44,0.44-2.9,0.86c-0.95,0.88-1.16,1.99-1.16,3.25c0,2.39,1.89,4.51,4.64,4.51
			c0.97,0,1.61-0.07,2.12-0.59c0.28-0.28,0.45-0.8,0.5-1.04c0.03-0.13,0.04-0.18,0.13-0.18c0.06,0,0.12,0.09,0.12,0.18
			s-0.18,1.17-0.31,1.6c-0.07,0.23-0.1,0.28-0.32,0.37c-0.53,0.2-1.49,0.28-2.33,0.28C-487.44,3.17-488.74,2.71-489.75,1.84"/>
	</g>
	<path class="st0" d="M181.77,58.27c0,1.2,0.01,2.18,0.07,2.69c0.04,0.37,0.07,0.6,0.47,0.66c0.18,0.03,0.47,0.06,0.57,0.06
		c0.09,0,0.12,0.06,0.12,0.1c0,0.06-0.07,0.1-0.22,0.1c-0.7,0-1.52-0.04-1.6-0.04c-0.06,0-0.89,0.04-1.27,0.04
		c-0.15,0-0.21-0.03-0.21-0.1c0-0.04,0.03-0.1,0.1-0.1c0.12,0,0.26-0.03,0.38-0.06c0.26-0.06,0.31-0.31,0.35-0.67
		c0.06-0.51,0.06-1.45,0.06-2.65v-1.24c0-0.06-0.03-0.07-0.07-0.07h-5.37c-0.04,0-0.07,0.01-0.07,0.07v1.24c0,1.2,0,2.15,0.06,2.66
		c0.04,0.37,0.09,0.6,0.47,0.66c0.19,0.03,0.47,0.06,0.59,0.06c0.07,0,0.1,0.06,0.1,0.1c0,0.06-0.06,0.1-0.2,0.1
		c-0.72,0-1.54-0.04-1.59-0.04c-0.07,0-0.89,0.04-1.29,0.04c-0.13,0-0.2-0.03-0.2-0.1c0-0.04,0.03-0.1,0.1-0.1
		c0.12,0,0.28-0.03,0.39-0.06c0.25-0.06,0.28-0.29,0.34-0.66c0.07-0.51,0.07-1.49,0.07-2.69v-2.19c0-1.93,0-2.28-0.03-2.68
		c-0.03-0.42-0.1-0.63-0.53-0.69c-0.15-0.02-0.29-0.03-0.44-0.03c-0.04,0-0.1-0.06-0.1-0.1c0-0.07,0.06-0.1,0.2-0.1
		c0.59,0,1.4,0.03,1.48,0.03c0.06,0,0.88-0.03,1.27-0.03c0.15,0,0.2,0.03,0.2,0.1c0,0.04-0.06,0.1-0.1,0.1c-0.09,0-0.18,0-0.32,0.03
		c-0.35,0.07-0.42,0.25-0.45,0.69c-0.01,0.4-0.01,0.78-0.01,2.71v0.26c0,0.07,0.03,0.07,0.07,0.07h5.37c0.04,0,0.07,0,0.07-0.07
		V56.1c0-1.93-0.01-2.31-0.03-2.71c-0.03-0.42-0.09-0.63-0.51-0.69c-0.15-0.02-0.29-0.03-0.44-0.03c-0.06,0-0.1-0.06-0.1-0.1
		c0-0.07,0.06-0.1,0.21-0.1c0.57,0,1.4,0.03,1.46,0.03c0.07,0,0.89-0.03,1.27-0.03c0.15,0,0.22,0.03,0.22,0.1
		c0,0.04-0.06,0.1-0.12,0.1c-0.09,0-0.16,0-0.32,0.03c-0.34,0.07-0.41,0.25-0.44,0.69c-0.03,0.4-0.03,0.75-0.03,2.68L181.77,58.27
		L181.77,58.27z"/>
</g>
<g>
	<g transform="translate(0 .928)">
		<defs>
			<filter id="Adobe_OpacityMaskFilter_6_" filterUnits="userSpaceOnUse" x="-0.44" y="0.71" width="22.84" height="20.41">
				<feColorMatrix  type="matrix" values="1 0 0 0 0  0 1 0 0 0  0 0 1 0 0  0 0 0 1 0"/>
			</filter>
		</defs>
		<mask maskUnits="userSpaceOnUse" x="-0.44" y="0.71" width="22.84" height="20.41" id="b_2_">
			<g class="st14">
				<path id="a_2_" class="st2" d="M-0.43,0.71H22.4v20.41H-0.43V0.71z"/>
			</g>
		</mask>
		<path class="st15" d="M13.88,13.94c-0.3,0.39-0.62,0.76-0.91,1.17c0.61,0.18,1.52,0.3,2.21,0.12
			C14.65,14.9,14.38,14.31,13.88,13.94 M6.72,11.26c0.49,0.17,1.25,0.47,1.88,0.41c0.48-0.05,0.68-0.47,0.69-0.95
			C9.3,9.91,8.88,9.07,8.35,8.9C8.02,9.9,7.19,10.4,6.72,11.26 M17.2,4.81c0.24,0.34,0.66,0.72,0.62,1.33
			c-0.03,0.46-0.34,0.64-0.49,1.01c0.41,0.48-0.43,0.49-0.16,0.78c-0.84,0.67-2.28,0.81-3.68,0.84c0.06,0.74,0.3,1.28,0.49,1.88
			c0.77-0.72,1.32-1.68,2.67-1.84c0.77,0.94-0.18,1.78-0.68,2.41c-0.38,0.47-0.7,0.91-1.01,1.28c0.46,0.76,0.91,1.53,1.53,2.13
			c-0.12,0.12-0.01,0.27,0.03,0.39c0.01,0.12-0.19,0.05-0.13,0.23c0.28,0.3,0.85,0.07,1.33,0.09c0.41,0.01,0.77,0.09,1.04,0.22
			c-0.07,0.25,0.01,0.47,0,0.75c-0.44,0.06-0.87,0.39-1.33,0.43c-0.18,0.02-0.34-0.04-0.52-0.03c-0.43,0.01-0.89,0.1-1.36,0.11
			c-1.72,0.02-3.34,0.17-4.95,0.1c-0.54-0.02-0.97,0.09-1.46,0.11c-1.4,0.04-2.75-0.08-4.04-0.07c-0.75,0.01-1.46-0.05-2.05-0.05
			c-0.11,0.51,0.16,0.86,0.2,1.33c1.04-0.28,1.87,0.32,2.8,0.3c0.41,0,0.94-0.1,1.33-0.2c0.17-0.05,0.31-0.15,0.49-0.17
			c0.14-0.01,0.3,0.07,0.46,0.06c0.15-0.01,0.25-0.11,0.39-0.1c0.53,0.02,1.11,0.45,1.69,0.51c0.89,0.09,1.73-0.17,2.7,0.01
			c0.6-0.4,1.32,0.1,2.02,0.12c0.58,0.01,1.18-0.22,1.79-0.18c0.16,0.01,0.34,0.09,0.49,0.09c0.45,0,0.91-0.25,1.37-0.2
			c0.6-1.48,0.21-3.31,0.23-5.08c0.01-1.42-0.14-2.92,0-4.33c0.05-0.49,0.17-0.9,0.16-1.33c-0.02-0.67-0.23-1.31-0.16-2.05
			c0.03-0.33,0.18-0.65,0.13-0.98C18.58,4.86,17.81,4.86,17.2,4.81 M14.04,4.44C12.6,4.45,10.75,4.47,9.36,4.8
			C9.1,4.53,8.65,4.81,8.32,4.84C7.86,4.87,7.38,4.67,6.89,4.68C6.58,4.69,6.27,4.77,5.97,4.76C5.54,4.73,5.12,4.6,4.67,4.6
			c-0.69,0-1.36,0.1-2.01,0.17c0.13,0.61,0.29,1.11,0.23,1.86c-0.05,0.51-0.4,1.14-0.39,1.53C2.5,8.48,2.75,8.81,2.78,9.14
			c0.02,0.25,0.02,0.5,0,0.75c-0.07,0.87-0.06,1.84-0.13,2.7c-0.02,0.18-0.1,0.37-0.1,0.56c0,0.46,0.26,0.95,0.1,1.4
			c0.49-0.08,0.88-0.22,1.39-0.14C4.4,14.45,4.7,14.71,5,14.75c0.34,0.05,0.71-0.05,1.08-0.01c0.25,0.03,0.52,0.14,0.78,0.19
			c1.39,0.25,2.77,0.46,4,0.04c0.47-1.15,1.29-1.93,1.89-2.94c-0.45-1.08-0.98-2.08-1.34-3.24l-0.52,0c0.04,0.84,0.36,1.92,0.1,2.73
			c-0.1,0.3-0.54,1.05-0.71,1.21c-0.11,0.09-0.33,0.13-0.52,0.23c-0.15,0.08-0.29,0.26-0.42,0.29c-0.4,0.08-0.88-0.12-1.27-0.09
			C7.77,13.19,7.5,13.3,7.21,13.3c-0.63,0.01-1.14-0.18-1.62-0.37C4.96,13.37,3.99,13,3.66,12.55c-0.17-0.48-0.03-0.97,0.29-1.21
			c0.14-0.09,0.3-0.09,0.45-0.16c0.96-0.44,1.56-1.31,1.99-2.29C5.77,8.43,4.57,8.76,4.18,8.12C4.05,7.89,3.9,7.28,3.99,6.92
			c0.05-0.23,0.69-0.85,1.17-1.05c0.3-0.11,0.62-0.14,0.94-0.11c0.51,0.08,0.63,0.53,1.1,0.71C7.62,6.63,8.08,6.5,8.54,6.56
			c0.48,0.06,0.93,0.26,1.43,0.25c0.39,0,0.72-0.12,1.07-0.11c0.18-0.42,0-0.93,0.16-1.33c0.07-0.18,0.3-0.28,0.45-0.39
			c0.56-0.39,0.76-0.28,1.08,0.25c0.26,0.46,0.5,0.88,0.46,1.59c0.82,0.04,1.68,0.28,2.5,0.11c0.14-0.31,0.33-0.69,0.19-1.04
			c-0.1-0.25-0.47-0.26-0.52-0.52c0.15-0.17,0.59-0.48,0.55-0.62C15.32,4.62,14.54,4.67,14.04,4.44 M-0.44,4.9V4.12
			c0.07-0.45,0.26-0.75,0.49-1.11C0.27,2.67,0.4,2.28,0.64,2c0.41-0.51,1.13-1.26,1.92-1.28C3.45,0.69,3.64,1.4,4.25,1.55
			c0.34,0.08,0.72-0.03,1.08,0.03c0.61,0.09,1.16,0.47,1.79,0.6c0.72,0.15,1.38,0.28,2.05,0.38c1.59-0.65,3.52-0.21,5.37-0.14
			c0.99,0.04,1.93,0,2.83,0.15c0.9,0.15,1.75,0.3,2.64,0.34c0.14-0.2,0.51-0.18,0.52-0.52c0.23-0.11,0.4-0.38,0.65-0.4
			c0.47-0.03,1.21,0.95,1.23,1.36c0.02,0.4-0.34,0.77-0.42,1.27c-0.04,0.25-0.04,0.49-0.1,0.71c-0.07,0.25-0.22,0.43-0.23,0.65
			c-0.03,0.55,0.1,1.13,0.13,1.69c0.03,0.5-0.1,1.02-0.19,1.57c-0.29,1.69-0.25,3.46-0.35,5.11c-0.04,0.51,0.1,1.03,0.1,1.53
			c0,0.26-0.06,0.55-0.1,0.82c-0.02,0.11-0.09,0.25-0.1,0.36c-0.01,0.12,0.07,0.26,0.07,0.39c-0.04,0.48-0.31,0.95-0.42,1.34
			c0.02,0.22,0.1,0.38,0.06,0.65c-0.38,0.47-0.77,0.88-1.3,1.08c-0.89,0.34-2.2,0.21-3.35,0.25c-0.57,0.02-1.15,0.05-1.72,0.08
			c-0.62,0.03-1.19-0.13-1.76-0.12c-0.52,0.01-1.04,0.01-1.53,0.01c-0.09,0-0.18-0.06-0.26-0.06c-0.09,0-0.3,0.08-0.46,0.1
			c-0.54,0.06-1.08,0.08-1.63,0.04c-0.38-0.03-0.72-0.23-1.17-0.25c-0.7-0.03-1.21,0.14-1.85,0.24c-0.85,0.14-1.86-0.06-2.6,0.08
			c-0.47,0.09-0.74,0.29-1.07,0.24c-0.48-0.08-0.86-0.5-0.88-1.04c-0.01-0.12-0.05-0.17-0.07-0.29c-0.04-0.27,0.07-0.45,0.07-0.68
			c-0.01-0.24-0.34-0.68-0.42-0.94c-0.34-1.02-0.53-2.06-0.55-3.35c-0.02-0.81-0.07-1.61-0.03-2.44c0.04-0.82,0.04-1.65,0.03-2.51
			c0-0.44-0.25-0.92-0.26-1.36C0,8.07,0.05,7.67,0.12,7.17C0.22,6.27-0.19,5.62-0.44,4.9"/>
	</g>
	<path class="st0" d="M56.52,11.93c0.23,0.26,0.35,0.63,0.59,0.88c0.21-0.29,0.41-0.59,0.59-0.91
		C57.32,11.84,56.83,11.78,56.52,11.93 M57.04,5.52c-0.17,0.37-0.28,0.81-0.29,1.34C56.97,6.9,57.14,7,57.36,7.04
		c0.12-0.55,0.29-1.06,0.36-1.66C57.5,5.44,57.27,5.48,57.04,5.52 M57.04,3.53c0.11,0.06,0.22,0.12,0.32,0.19
		c0.37,0,0.54-0.21,0.88-0.23c0.14-0.32,0.37-0.53,0.42-0.92c0.25-0.08,0.53-0.12,0.88-0.1c0.32,0.17,0.48,0.38,0.49,0.88
		c0,0.3,0,0.73-0.03,0.97c-0.06,0.41-0.37,0.89-0.56,1.34c-0.2,0.5-0.47,0.94-0.52,1.37c0.47,0.28,1.2-0.29,1.59,0.12
		c0.3,0.97-0.5,1.51-1.53,1.61c-1.17,0.12-2.62,0.15-3.42-0.17c-0.32,0.25-0.76-0.12-1.1,0.07c-0.08,0.46,0.11,0.94,0.03,1.4
		c-0.01,0.11-0.1,0.22-0.13,0.33c-0.17,0.65-0.07,1.33-0.17,1.98c-0.09,0.68-0.52,1.32-0.39,2.05c0.44-0.19,0.72-0.52,1.33-0.4
		c0.34,0.06,0.63,0.45,0.98,0.45c-0.13-0.54-0.49-1.01-0.82-1.53c-0.17-0.27-0.46-0.48-0.52-0.78c-0.12-0.6,0.19-1.17,0.33-1.7
		c0.73-1.1,2.54-0.34,3.45,0.07c0.21-0.12,0.24-0.33,0.49-0.36c0.46-0.05,0.98,0.53,0.91,1c-0.04,0.22-0.38,0.51-0.55,0.78
		c-0.13,0.2-0.17,0.45-0.29,0.62c-0.15,0.2-0.44,0.35-0.61,0.56c-0.14,0.17-0.18,0.37-0.29,0.49c-0.15,0.15-0.37,0.18-0.49,0.29
		c-0.06,0.22,0.02,0.53,0.06,0.75c0.33,0.07,0.64,0.23,0.98,0.22c0.41-0.01,0.72-0.3,1.1-0.33c0.15,0.21,0.25,0.47,0.45,0.61
		c0.02,0.18-0.2,0.16-0.09,0.32c-0.4,0.24-0.7,0.65-1.21,0.82c-0.38,0.13-0.87,0.03-1.24,0.27c-0.26,2.76-1.26,4.8-4.13,4.97
		c-0.41-0.15-1.16-0.44-0.98-1.13c0,0,0.08-0.14,0.1-0.16c0.27-0.29,0.94-0.11,1.4-0.24c1.53-0.41,2.12-1.66,2.15-3.56
		c-0.8-0.41-2.11,0.07-2.83-0.4c-0.58,1.37-2.44,2.41-4.42,1.79c-0.33-0.35-0.88-1.02-0.65-1.68c0.12-0.36,0.55-0.44,0.91-0.63
		c0.18,0.15,0.36,0.31,0.62,0.39c1.64,0.25,2.55-0.79,2.8-2.43c0.23-1.54,0.22-3.35-0.26-4.58c-0.89-0.33-1.66-0.05-2.6,0.02
		c-0.06-0.1-0.16-0.16-0.23-0.26c0.12-0.72-0.16-1.46,0.29-1.95c0.11-0.12,0.28-0.13,0.45-0.23c0.43-0.25,1.13-0.79,1.76-0.37
		c0.12,0.08,0.19,0.23,0.36,0.32c0.15,0.08,0.38,0.14,0.59,0.22c0.45,0.2,0.81,0.36,1.56,0.28c0.12-0.41,0.1-0.98,0.06-1.46
		c-0.62-0.07-1.27-0.17-1.85-0.25c-0.22-0.03-0.45,0-0.62-0.06c-0.18-0.07-0.27-0.27-0.46-0.29c-0.16-0.02-0.28,0.11-0.42,0.1
		c-0.21,0-0.29-0.12-0.46-0.19c-0.22-0.68-0.09-1.67,0.29-2.18c0.18-0.24,0.68-0.57,0.98-0.63c0.3-0.05,0.58,0.11,0.88,0.09
		c0.19-0.01,0.3-0.13,0.52-0.13c0.17,0.12,0.21,0.49,0.26,0.81c0.25,0.25,0.67,0.32,1.01,0.48c0.01-1.17,0.13-2.22,0.85-2.68
		c0.16-0.05,0.16,0.08,0.3,0.07c0.15-0.02,0.25-0.25,0.52-0.14c0.27,0.12,0.55,1.19,0.59,1.69C57.13,2.67,57.01,3.17,57.04,3.53"/>
	<path class="st0" d="M64.13,8.43c-0.32-0.52-1.27-0.34-1.63,0.05c0.36,0.58,0.71,1.2,0.98,1.88c0.14,0.35,0.25,0.7,0.39,1.04
		c0.14,0.33,0.35,0.62,0.49,0.94c0.08,0.18,0.08,0.43,0.26,0.55c0.14-1.36,0.6-2.84,0.36-4.26C64.68,8.57,64.41,8.49,64.13,8.43
		 M64.78,6.28C65,6.5,65.34,6.59,65.66,6.72c0.53,0.22,1.14,0.55,1.79,0.67c0.51,0.1,1.21,0.18,1.66-0.01
		c0.14-0.06,0.34-0.32,0.49-0.33c0.49-0.05,0.45,0.63,0.26,0.94c-0.47,0.79-1.56,1.2-2.8,1.19c-0.14,0.71-0.53,1.5-0.46,2.21
		c0.01,0.12-0.11,0.11-0.13,0.2c0.07,1.07-0.59,1.69-0.42,2.96c-0.43,0.55-0.08,1.03,0.19,1.69c0.38,0.91,0.97,2.18,1.43,2.92
		c0.3,0.48,0.96,0.98,1.49,1.13c0.59,0.17,1.28,0.04,1.53-0.3c0.14-0.2,0.22-0.76,0.49-0.76c0.41,0,0.33,1.06,0.19,1.43
		c-0.23,0.64-0.49,0.87-1.07,1.15c-0.79,0.37-2.61,0.91-3.42,0.19c-0.56-0.51-0.73-1.45-1.04-2.27c-0.3-0.81-0.79-1.45-0.98-2.3
		c-0.91,0.54-1.9,1.48-3.31,1.65c-0.63,0.08-1.23-0.13-1.95-0.12c-0.15-0.12-0.32-0.22-0.49-0.32c-0.19-0.37-0.15-0.8-0.17-1.3
		c0.09-0.18,0.27-0.25,0.43-0.36c1.34,0.3,2.97,0.14,3.84-0.58c0.21-0.17,0.69-0.7,0.68-1.01c0-0.21-0.39-0.74-0.55-1.07
		c-0.21-0.4-0.36-0.76-0.52-1.1c-0.34-0.75-0.61-1.75-0.92-2.34c-0.2-0.4-0.4-0.68-0.55-1.17C61.3,9.5,61.14,9.3,61.14,9.16
		c0-0.35,0.43-0.62,0.49-0.95c-0.12-0.11-0.42-0.06-0.55-0.26c-0.15-0.2-0.14-0.66-0.04-0.91c0.05-0.1,0.15-0.13,0.23-0.23
		c0.11-0.13,0.11-0.21,0.2-0.26c0.17-0.1,0.34-0.08,0.49-0.13c0.84-0.32,1.73-1.45,1.5-2.55c-0.04-0.19-0.23-0.4-0.19-0.65
		c0.03-0.32,0.44-0.37,0.55-0.82c0.76-0.37,1.67,0.39,1.85,1.06C65.95,4.54,64.99,5.61,64.78,6.28 M37.86,3.84
		c0.64-0.07,1.34,0.02,2.01,0.02c0.17,0,0.35-0.05,0.52-0.04c0.23,0.02,0.45,0.2,0.72,0.25c0.35,0.07,0.84-0.01,1.3,0.02
		c0.53,0.04,0.94,0.23,1.37,0.12c0.11-0.03,0.17-0.12,0.29-0.16c0.12-0.05,0.25-0.03,0.36-0.07c0.36-0.14,0.88-0.61,1.53-0.34
		c0.32,0.14,0.69,0.74,0.52,1.3c-0.09,0.29-0.42,0.44-0.59,0.75c-0.44,0.86-0.21,2.04-0.49,3c-0.01,0.15-0.09-0.09-0.13,0.06
		c0,1.09-0.68,1.87-1.5,2.13c-0.16-0.08-0.4-0.08-0.56-0.16c-0.42-0.36-0.05-1.04,0.07-1.46c0.27-1,0.05-2.22,0.23-3.39
		c-1.11-0.17-2.36-0.17-3.45-0.36c-0.36-0.06-0.72-0.2-1.04-0.22c-0.73-0.04-1.37,0.24-1.95,0.47C36.55,5.79,36,5.46,35.41,5.52
		c-0.17,0.02-0.28,0.14-0.45,0.2c-0.65,0.22-1.48,0.28-2.38,0.34C32.07,6.1,31.47,6.25,30.8,6.2c-0.82-0.05-1.58-0.42-2.38-0.24
		c0.13,1.28-0.2,3.13,0.32,4.13c-0.2,0.23-0.19,0.65-0.45,0.82c-0.12,0.09,0.13,0.19,0.03,0.26c-0.13-0.11-0.32,0.03-0.48-0.06
		c-0.41-0.49-1.15-1.09-1.27-1.97c-0.03-0.21,0.01-0.42-0.03-0.65c-0.06-0.33-0.23-0.66-0.23-1.01c0-0.16,0.08-0.32,0.06-0.49
		c-0.03-0.61-0.72-0.96-0.87-1.59c-0.23-0.88,0.24-1.88,0.78-2.22c0.68-0.44,2.29-0.49,2.6,0.44c0.61,0.06,1.06,0.14,1.53,0.31
		c0.43,0.15,0.86,0.46,1.36,0.48c0.36,0.01,0.68-0.13,1.08-0.14c0.79-0.01,1.93,0.02,2.18-0.5c0.11-0.23,0.08-0.56,0-0.72
		c-0.2-0.4-0.88-0.26-0.95-0.74c-0.03-0.21,0.15-0.56,0.29-0.75c0.44-0.6,0.99-1.09,2.05-0.7c0.33,0.13,0.76,0.36,1.01,0.55
		C38.15,1.94,38.15,3.07,37.86,3.84"/>
	<path class="st0" d="M40.72,8.15c0.5,0.18,0.54,0.92,0.2,1.3c-0.46-0.01-0.73,0.37-1.17,0.5c-1.21,0.34-2.8-0.17-4.04,0.16
		c0.07,1.01,0.48,1.68,0.91,2.34c0.57-0.19,1-0.02,1.46,0.25c0.26,0.15,0.37,0.38,0.62,0.39c0.22,0,0.44-0.21,0.65-0.33
		c0.6-0.34,1.12-0.81,1.53-1.38c-0.11-0.22-0.08-0.6,0.03-0.78c0.49-0.05,0.59-0.47,1.17-0.36c0.48,0.09,1.32,0.99,1.2,1.85
		c-0.07,0.47-0.41,0.46-0.81,0.66c-0.39,0.19-0.65,0.62-1.07,0.76c-0.22,0.53-1.17,0.62-1.6,1.05c0.08,0.5,0.44,0.91,0.75,1.33
		c0.6,0.82,1.22,1.63,1.86,2.43c0.41,0.51,0.75,1.03,1.27,1.32c0.65,0.37,1.91,0.77,2.8,0.27c0.18-0.1,0.38-0.52,0.59-0.52
		c0.29,0,0.58,0.61,0.52,1.04c-0.03,0.19-0.19,0.34-0.36,0.52c-0.37,0.42-1.01,1.09-1.75,1.15c-0.17,0.01-0.36-0.06-0.52-0.06
		c-0.37-0.01-0.7,0.1-1.04,0.1c-0.24,0-0.45-0.16-0.71-0.09c-0.3-0.24-0.75-0.29-1.05-0.54c-0.23-0.2-0.36-0.57-0.55-0.85
		c-0.2-0.29-0.4-0.58-0.59-0.81c-0.62-0.74-1.19-1.55-1.76-2.39c-0.54-0.8-1.25-1.55-1.66-2.49c0.43,1.86,0,3.73-0.69,4.95
		c-0.72,1.27-1.81,2.28-3.25,2.62c-0.37-0.19-0.76-0.61-0.58-1.17c0.03-0.1,0.15-0.18,0.32-0.33c0.2-0.17,0.27-0.37,0.59-0.36
		c1.16-1.15,2.39-2.94,1.76-5.19c-0.28,0.2-0.53,0.52-0.78,0.82c-0.26,0.3-0.48,0.61-0.68,0.95c-0.57,0.25-1.06,0.71-1.63,1.11
		c-1.05,0.74-2.28,1.39-3.58,1.91c-0.93,0.37-1.82,0.9-3.12,0.74c-0.31-0.04-1.07-0.8-1.01-1.23c0.03-0.19,0.38-0.5,0.59-0.56
		c0.23-0.07,0.51-0.01,0.75-0.04c0.71-0.08,1.2-0.34,1.79-0.53c1.27-0.41,2.42-0.65,3.48-1.39c0.34-0.24,0.66-0.55,0.98-0.82
		c0.31-0.27,0.68-0.54,0.95-0.85c0.31-0.36,0.54-0.77,0.81-1.15c0.22-0.3,0.75-0.7,0.52-1.24c-0.34,0-0.62,0.18-0.88,0.4
		c-0.15,0.13-0.22,0.32-0.36,0.46c-0.16,0.15-0.48,0.26-0.75,0.43c-0.25,0.15-0.48,0.39-0.68,0.49c-0.11,0.06-0.24,0.05-0.36,0.1
		c-0.4,0.18-0.79,0.47-1.2,0.69c-0.82,0.45-1.55,0.89-2.57,1.22c-0.7,0.23-1.5,0.27-2.15,0.21c-0.25-0.2-0.6-0.28-0.75-0.55
		c-0.23-0.43,0.05-0.76,0.39-1.08c1.5,0.05,2.64-0.49,3.71-0.97c0.54-0.24,1.11-0.39,1.53-0.63c0.34-0.18,0.66-0.46,1.01-0.66
		c0.35-0.2,0.76-0.38,1.07-0.59c0.21-0.15,0.37-0.39,0.55-0.59c0.19-0.2,0.41-0.38,0.49-0.62c-0.05-0.16-0.13-0.3-0.2-0.46
		c-0.84,0.23-1.54,0.95-2.31,1.35c-0.73,0.38-1.57,0.77-2.47,1.03c-0.73,0.21-1.3,0.36-2.05,0.21c-0.73-0.15-1.39-0.39-1.33-1.36
		c0.23-0.27,0.58-0.42,0.84-0.66c2.36,0.19,4.76-0.36,5.96-1.64c-0.36-0.01-0.72-0.3-1.14-0.35c-0.18-0.02-0.38,0.06-0.55,0
		c-0.84-0.28-0.16-1.33,0.13-1.89c0.37-0.07,0.71-0.37,1.1-0.43c0.46-0.07,0.82,0.19,1.3,0.18c0.18,0.23,0.36,0.47,0.59,0.65
		C34.4,8.22,35.17,8.51,36,8.51c0.36,0,0.7-0.11,1.07-0.14c0.53-0.05,1.12-0.04,1.63-0.01c0.3,0.01,0.6,0.13,0.88,0.12
		C39.99,8.46,40.37,8.18,40.72,8.15 M100.05,6.33c0,0.68-0.2,1.41-0.24,2.03c-0.04,0.53,0.08,1.17,0.03,1.68
		c-0.02,0.24-0.11,0.46-0.14,0.7c-0.08,0.67-0.03,1.31-0.14,1.96c-0.09,0.57-0.2,1.24-0.35,1.79c-0.09,0.32-0.3,0.61-0.49,0.92
		c-0.41,0.67-0.62,1.07-1.19,1.62c-0.24,0.24-0.46,0.54-0.7,0.74c-0.3,0.25-1.08,0.85-1.58,0.82c-0.56-0.02-0.96-0.62-1.19-1.15
		c-0.09-0.21-0.19-0.47-0.14-0.63c0.09-0.29,0.53-0.19,0.67-0.49c0.34-0.04,0.79-0.05,1.09-0.18c1.02-0.45,2.03-1.58,2.27-2.96
		c0.27-1.49,0.47-3.22,0.32-4.83c-0.08-0.89-0.6-1.68-0.91-2.34c-0.27-1.44,0.53-2.56,1.4-2.95c0.89-0.4,1.34,0.77,1.86,1
		c0.25,0.12,0.72,0.1,1.12,0.2c0.18,0.05,0.34,0.18,0.49,0.21c0.35,0.08,0.81,0,1.19,0.02c0.49,0.05,0.93,0.16,1.4-0.11
		c0.16-0.09,0.32-0.47,0.63-0.35c0.19,0.07,0.23,0.6,0.14,0.87c-0.04,0.14-0.22,0.25-0.38,0.42c-0.15,0.15-0.23,0.36-0.35,0.46
		c-0.11,0.09-0.33,0.18-0.49,0.28c-0.3,0.2-0.55,0.39-1.05,0.43C102.18,6.58,101.09,6.29,100.05,6.33"/>
	<g transform="translate(114.72 2.58)">
		<defs>
			<filter id="Adobe_OpacityMaskFilter_7_" filterUnits="userSpaceOnUse" x="-11.07" y="0.41" width="15.13" height="20.65">
				<feColorMatrix  type="matrix" values="1 0 0 0 0  0 1 0 0 0  0 0 1 0 0  0 0 0 1 0"/>
			</filter>
		</defs>
		<mask maskUnits="userSpaceOnUse" x="-11.07" y="0.41" width="15.13" height="20.65" id="d_2_">
			<g class="st16">
				<path id="c_2_" class="st2" d="M-11.07,0.41H4.06v20.65h-15.13V0.41z"/>
			</g>
		</mask>
		<path class="st17" d="M-3.58,3.99c-0.06,1.13-0.01,2.17-0.21,3.19c0.31,0.09,0.64,0.16,0.98,0.24c0.73,0.15,1.22,0.21,1.86-0.02
			c0-0.42,0.2-0.8,0.18-1.22C-0.8,5.82-0.99,5.46-1.02,5.06c-0.03-0.47,0.07-0.71,0.1-1.02C-1.89,4.04-2.8,3.81-3.58,3.99
			 M1.02,4.06c0.03,0.36-0.16,0.71-0.18,1.09c-0.02,0.3,0.15,0.63,0.18,0.98C1.05,6.6,0.94,7.05,0.95,7.56
			c0.27,0.05,0.53,0.24,0.98,0.27c0.73,0.05,1.57-0.51,1.71,0.3c0.1,0.56-0.39,0.97-0.81,1.13C2.31,9.46,1.55,9.4,0.91,9.49
			c-0.21,2.77-0.06,6.03,0,8.93c0.01,0.69,0.27,1.66,0.07,2.17c-0.1,0.27-0.92,0.6-1.3,0.43c-0.36-0.16-0.26-0.83-0.35-1.4
			c-0.05-0.29-0.14-0.51-0.14-0.7c0-0.2,0.07-0.46,0.07-0.6c0-0.22-0.08-0.43-0.11-0.66c-0.03-0.37,0.03-0.77,0.04-1.19
			c0-0.78-0.11-1.64-0.11-2.48c0-0.88-0.17-1.75-0.1-2.49c0.06-0.75,0.23-1.48,0.03-2.17c-1.01,0-1.73-0.29-2.73-0.3
			c-0.48,1.55-0.58,3.41-1.33,4.74c-0.12,0.21-0.28,0.39-0.42,0.6C-5.6,14.57-5.69,14.84-5.82,15c-0.69,0.84-1.7,1.47-3.05,1.78
			c-0.64,0.14-1.23,0.17-1.72-0.2c-0.35-0.26-0.52-0.82-0.49-1.33c0.24-0.4,0.75-0.12,1.26-0.11c0.6,0.01,1.06-0.17,1.51-0.36
			c0.18-0.08,0.2-0.24,0.42-0.21c0.2-0.22,0.53-0.29,0.74-0.49c0.24-0.25,0.44-0.7,0.66-1.06c0.63-1.01,0.74-2.34,0.95-3.89
			c-0.24-0.02-0.4,0.02-0.6,0.01c-0.33-0.03-0.66-0.25-0.98-0.24c-0.44,0.02-0.62,0.65-1.12,0.5C-8.47,9.31-8.6,8.59-8.58,8.19
			c0.03-0.76,0.96-1.92,1.78-1.91c0.5,0.01,0.85,0.36,1.26,0.69c0.22-0.89,0.26-2.4-0.18-3.12C-6.23,3.7-6.76,3.55-7.18,3.28
			C-7.7,3.53-8.36,3.65-8.51,2.94c-0.09-0.4,0.03-1.4,0.21-1.58c0.28-0.28,0.66-0.83,1.12-0.92c0.47-0.1,0.8,0.06,1.3,0.13
			c0.49,0.96,2,0.88,3.01,1.31c0.71-0.33,1.53,0.09,2.34,0.09c0.3,0,0.6-0.09,0.91-0.07c0.74,0.04,1.44,0.25,2.06,0.13
			c0.31-0.06,0.63-0.34,0.91-0.36c0.38-0.02,0.6,0.27,0.7,0.55C3.66,3.44,2.65,4.06,1.02,4.06"/>
	</g>
	<path class="st0" d="M102.36,11.67c-0.12,0.85-0.27,1.66-0.38,2.42c0.45,0.19,1.18,0.33,1.72,0.13c0.07-0.83,0.13-1.67,0.14-2.56
		C103.34,11.67,102.84,11.67,102.36,11.67 M100.71,16.31c-0.72-0.53-0.14-1.47,0.04-2.14c0.15-0.61,0.25-1.57,0.1-2.24
		c-0.06-0.3-0.28-0.52-0.35-0.88c-0.22-1.22,0.36-2.12,1.12-2.25c0.79-0.14,0.99,0.46,1.29,0.9c0.51,0.12,0.79,0.33,1.26,0.13
		c0.39-0.16,0.47-0.66,0.84-0.67c0.27,0,0.39,0.23,0.56,0.45c0.09,0.78-0.22,1.51-0.24,2.21c-0.01,0.2,0.06,0.4,0.03,0.59
		c-0.02,0.16-0.16,0.26-0.21,0.42c-0.05,0.17-0.06,0.47-0.1,0.7c-0.04,0.24-0.14,0.51-0.14,0.63c-0.01,0.35,0.16,0.63,0.07,0.91
		c-0.09,0.28-0.4,0.51-0.66,0.6c-0.81,0.29-2.09,0.04-2.91,0.27C101.11,16.04,101,16.23,100.71,16.31 M83.86,5.13
		c-0.46,0.46-0.78,1.06-1.05,1.73c0.6,0.39,1.88,0.5,2.7,0.21c0.29-0.66-0.15-1.29-0.59-1.52c0.06-0.15,0.11-0.3,0.09-0.52
		C84.6,5.02,84.2,5.04,83.86,5.13 M85.1,3.27c0.46,0.15,0.97,0.36,1.5,0.38c0.57,0.02,1.07-0.17,1.59-0.17c0.48,0,0.96,0.1,1.4,0.22
		c1.08,0.28,2.48,0.23,3.52,0.5c0.27-0.1,0.67-0.24,0.94-0.23c0.36-0.24,0.61-0.59,0.98-0.82c0.32,0.18,0.34,0.55,0.29,0.88
		c-0.63,0.95-1.71,1.58-3.19,1.75c-0.7,0.08-1.2-0.12-1.82-0.25c-0.59-0.12-1.2-0.15-1.63-0.38c-0.49,0.08-1.06-0.14-1.53,0.01
		c0.17,0.34,0.13,0.58,0.16,1.01c0.01,0.12,0.1,0.25,0.1,0.36c0.01,0.72-0.7,1.85-1.33,2.09c-0.42,0.16-1.28,0.3-1.79,0.34
		c-0.49,0.04-1.05,0.01-1.53-0.02c-0.29-0.02-0.56-0.16-0.85-0.19c-0.54-0.05-1.05,0.37-1.53,0.3c-0.13-0.02-0.33-0.14-0.52-0.22
		c-0.53-0.23-1-0.77-0.52-1.43c0.09-0.08,0.22-0.07,0.36-0.04c0.77-0.5,1.44-1.11,1.85-1.97c-0.45-0.03-0.86,0.24-1.3,0.27
		c-0.86,0.06-1.76-0.26-2.64-0.28c-0.35,0-0.64,0.16-0.98,0.24c-1.09,0.24-2.07-0.28-2.93-0.53c-0.3,0.09-1.11,0.6-1.33,0.33
		c-0.1-0.12-0.03-0.28-0.03-0.49c-0.01-0.27-0.12-0.65-0.06-0.95c0.04-0.23,0.32-0.61,0.49-0.81c0.32-0.39,0.85-0.89,1.5-0.86
		c0.25,0.01,0.47,0.2,0.74,0.29c0.21,0.07,0.43,0.03,0.59,0.09c0.29,0.12,0.47,0.48,0.75,0.58c0.51,0.06,0.97-0.01,1.46,0.02
		c0.93,0.07,1.69,0.53,2.7,0.54c0.81,0,1.98,0.1,2.02-0.73c-0.05-0.19-0.36-0.3-0.4-0.55c-0.05-0.29,0.11-0.72,0.2-0.88
		c0.55-1.05,2.75-0.8,2.9,0.53C85.26,2.5,85.19,2.82,85.1,3.27 M81.85,14.61c-0.03,0.25-0.07,0.47-0.1,0.72
		c0.37,0.09,0.8,0.11,1.24,0.13c0.77,0.03,1.56,0.07,2.15,0.05c0.06-0.34,0-0.74,0-1.04C84.02,14.69,82.73,13.89,81.85,14.61
		 M81.91,12.59c0.51,0.29,1.24,0.11,1.89,0.18c0.4,0.04,0.93,0.3,1.4,0.15c-0.02-0.35,0.17-0.79,0.2-1.2
		c-1.27-0.04-2.42-0.37-3.74-0.23C81.77,11.83,81.85,12.2,81.91,12.59 M85.33,17.09c-0.51,0.19-1.29-0.02-2.01-0.02
		c-0.37,0-0.73,0.16-1.04,0.17c-0.26,0.01-0.53-0.13-0.75-0.03c-0.11,0.05-0.43,0.57-0.55,0.79c-0.18,0.32-0.3,0.78-0.46,1.04
		c-0.26,0.45-0.88,1.2-1.27,1.51c-0.16,0.12-0.32,0.21-0.49,0.36c-0.28,0.26-0.55,0.52-0.97,0.63c-0.33,0.08-0.8,0.11-1.11-0.06
		c-0.1-0.05-0.52-0.52-0.52-0.75c0-0.51,0.9-0.59,1.3-0.79c0.35-0.17,0.69-0.47,1.01-0.76c0.67-0.59,0.92-1.33,1.24-2.29
		c0.14-0.42,0.38-0.86,0.46-1.27c0.13-0.7,0.1-1.5,0.06-2.18c-0.02-0.4-0.15-0.79-0.29-1.11c-0.24-0.52-0.97-1.19-0.52-1.98
		c0.14-0.25,1.01-1.03,1.3-1.08c0.48-0.09,1.11,0.16,1.59,0.28c0.52,0.14,1.07,0.18,1.6,0.25c1.1,0.14,2.15,0.83,2.66-0.25
		c0.36,0.06,0.49-0.68,1.01-0.53c0.4,0.11,0.29,1.5,0.17,1.86c-0.06,0.16-0.2,0.3-0.26,0.46c-0.13,0.32-0.12,0.69-0.23,1.04
		c-0.06,0.2-0.2,0.4-0.26,0.62c-0.14,0.51-0.11,1.2-0.07,1.89c0.08,1.11-0.02,2.29-0.03,3.32c-0.01,0.25,0.09,0.53,0.1,0.81
		c0,0.22-0.06,0.47-0.07,0.71c-0.01,0.53,0.11,1.08,0.13,1.56c0.01,0.26-0.04,0.48-0.03,0.68c0,0.33,0.07,0.58,0,0.78
		c-0.1,0.27-0.49,0.52-0.81,0.5c-0.85-0.06-0.89-2.02-0.95-2.99C85.2,19.16,85.27,18.17,85.33,17.09 M149.51,13.29
		c0.1-0.02,0.07,0.1,0.19,0.06c0.24-0.11,0.43-0.44,0.69-0.65c0.07-0.06,0.17-0.07,0.23-0.13c0.68-0.67,0.6-2.21-0.23-2.67
		c-0.21,0.18-0.76,0.22-1.07,0.11c-0.22,1.17-0.26,2.36-0.13,3.54C149.32,13.48,149.34,13.3,149.51,13.29 M149.58,5.51
		c-0.39,0.74,0.01,1.7-0.2,2.64c0.69-0.21,1.03-0.95,1.4-1.48c0.24-0.33,0.47-0.6,0.46-1.07C150.67,5.71,150.08,5.57,149.58,5.51
		 M162.27,4.35c0.49,0.21,0.93,0.06,1.49,0.15c0.33,0.05,0.7,0.17,1.08,0.22c0.39,0.06,0.83,0.25,1.07,0.22
		c0.35-0.05,0.49-0.51,0.78-0.63c0.59-0.23,0.98,0.38,1.21,0.61c-0.05,0.86-0.06,1.68-0.13,2.53c-0.04,0.53-0.04,1.29-0.23,1.76
		c-0.11,0.28-0.35,0.52-0.49,0.78c-0.15,0.27-0.31,0.53-0.58,0.66h-0.49c-0.13-0.1-0.25-0.22-0.36-0.36
		c-0.2-0.68,0.16-1.15,0.26-1.66c0.15-0.79,0-1.6-0.13-2.34c-1.78-0.09-3.39-0.08-5.11-0.13c-0.53-0.01-1.05,0.13-1.59,0.18
		c-0.14,0.01-0.28-0.04-0.42-0.03c-0.25,0.01-0.48,0.14-0.75,0.17c-0.49,0.05-0.99-0.02-1.5-0.02c-0.05,0.65-0.27,1.46-0.26,2.22
		c0,0.49,0.25,0.87,0.19,1.24c-0.01,0.1-0.05,0.04-0.13,0.16c-0.19,0.29-0.45,1.22-1.07,0.92c-0.15-0.07-0.46-0.78-0.55-1.04
		c-0.15-0.4-0.22-0.9-0.26-1.33c-0.12-1.28-0.2-2.4-0.1-3.51c-0.51,0.41-0.82,1.29-1.43,1.7c-0.19,0.4-0.41,0.77-0.78,0.98
		c-0.02,0.17-0.02,0.37-0.19,0.39c0.36,0.42,0.83,0.72,1,1.33c-0.1,0.6,0.18,1.23,0.1,2.05c-0.1,1.1-0.91,1.93-1.66,2.52
		c-0.24,0.19-0.58,0.48-0.81,0.56c-0.45,0.14-0.85,0.04-1.27,0.2c0.01,0.47-0.14,0.97-0.13,1.5c0.01,0.26,0.11,0.54,0.1,0.78
		c-0.01,0.15-0.14,0.29-0.16,0.46c-0.18,1.14,0.01,2.52,0,3.68c-0.01,0.66-0.12,1.6-0.59,1.66c-0.22,0.03-0.51-0.13-0.68-0.32
		c-0.87-0.96-0.76-2.63-0.75-4.48c0-0.78,0.11-1.55,0.1-2.21c0-0.14-0.06-0.28-0.06-0.39c0-0.74,0.17-1.54,0.19-2.34
		c0.02-0.56-0.13-1.12-0.1-1.69c0.06-1.18,0.19-2.35,0.19-3.45c0.01-0.9-0.28-1.86,0.07-2.54c-0.3-0.1-0.47-0.35-0.68-0.55
		c-0.28-0.81,0.07-1.57,0.35-2.09c0.67-0.41,1.26-1.03,2.41-0.77c0.78,0.29,1.19,1.07,1.88,1.52c0.23,0.15,0.65,0.37,0.91,0.35
		c0.51-0.03,0.92-0.97,1.6-0.96c0.38,0.01,0.99,0.77,0.85,1.33c0.41-0.41,1.02-1.06,2.05-0.86c0.31,0.37,0.97,0.94,1.79,0.96
		c0.6,0.02,1.59-0.07,1.63-0.69c-0.43-0.28-1.01-0.43-1.01-1c0-0.58,0.56-0.66,0.72-1.17c0.17-0.06,0.3-0.18,0.46-0.26
		c0.26-0.14,1.03-0.02,1.3,0.09c0.34,0.14,0.82,0.77,0.91,1.23C162.61,3.2,162.37,3.8,162.27,4.35"/>
	<path class="st0" d="M157.81,7.6c0.72-0.16,1.21,0.19,1.82,0.24c0.67,0.43,1.59,0.51,2.67,0.5c0.34,0,0.69-0.08,0.94-0.17
		c0.29-0.1,0.51-0.32,0.79-0.34c0.38-0.01,0.71,0.22,0.81,0.36c0.11,0.16,0.2,0.51,0.16,0.71c-0.08,0.51-0.79,0.74-1.53,0.86
		c-0.65,0.1-1.5,0.21-2.12,0.24c-0.52,0.02-1.08,0.07-1.49,0.04c-0.58-0.03-1.26-0.1-1.92,0.05c-0.26,0.06-0.45,0.22-0.72,0.17
		c-0.2-0.04-0.53-0.33-0.58-0.52c-0.12-0.41,0.14-1.2,0.32-1.5C157.14,7.97,157.59,7.73,157.81,7.6 M165.46,11.84
		c0.07,0.47-0.25,0.55-0.33,0.88c-0.29,0.07-0.48,0.33-0.78,0.47c-0.46,0.2-1.02,0.11-1.56,0.27c-0.29,0.84-0.04,2.22-0.33,3.06
		c0.43,0.44,1.03,0.72,1.59,1.03c0.05,0.09,0.14,0.12,0.17,0.23c0.66,0.27,1.65,0.99,2.53,1.13c0.48,0.06,1.1,0.13,1.6-0.01
		c0.62-0.18,0.34-1.13,0.97-1.34c0.55,0.57,0.31,1.98-0.19,2.57c-0.18,0.21-0.69,0.55-0.98,0.73c-0.26,0.16-0.62,0.33-0.94,0.46
		c-0.43,0.18-0.78,0.48-1.2,0.43c-0.61-0.07-1.06-0.91-1.5-1.29c-0.25-0.22-0.56-0.36-0.84-0.55c-0.29-0.19-0.51-0.48-0.75-0.65
		c-0.13-0.09-0.41-0.16-0.62-0.29c-0.3-0.18-0.5-0.37-0.85-0.45c-0.44-0.1-0.9-0.02-1.4-0.12c-0.38-0.57,0.05-1.15,0.26-1.63
		c0.39-0.92,0.29-2.07,0.32-3.19c-0.24-0.07-1-0.28-1.33-0.12c-0.21,0.1-0.46,0.88-0.59,1.11c-0.15,0.26-0.39,0.53-0.58,0.82
		c-0.19,0.28-0.33,0.6-0.52,0.88c-0.18,0.26-0.43,0.5-0.65,0.75c-0.6,0.69-1.15,1.35-1.92,1.84c-0.5,0.18-1,0.36-1.56,0.47
		c-0.14-0.11-0.14-0.36-0.39-0.19c-0.12-0.21-0.3-0.34-0.49-0.46c0.05-0.22-0.12-0.23-0.19-0.32c0.1-0.27,0.42-0.32,0.39-0.72
		c0.16-0.08,0.28-0.2,0.42-0.29c0.92-0.01,1.9-0.72,2.54-1.29c0.22-0.19,0.45-0.33,0.65-0.5c0.22-0.18,0.35-0.47,0.56-0.72
		c0.35-0.44,0.76-0.69,0.88-1.31c-0.72-0.2-1.53,0.6-2.11,0.02c-0.15-0.15-0.5-0.83-0.42-1.27c0.04-0.24,0.33-0.66,0.55-0.85
		c0.42-0.36,1.39-0.72,2.02-0.5c0.2,0.07,0.38,0.31,0.59,0.39c0.23,0.08,0.57,0.07,0.88,0.13c1.2,0.21,2.9,0.3,4.2,0.13
		c0.42-0.06,0.92-0.23,1.23-0.17C165.03,11.43,165.23,11.71,165.46,11.84 M131.55,1.18c0.27,0,0.54,0,0.82-0.01
		c1.06,0.2,1.64,0.78,1.59,2.04c-0.01,0.25-0.11,0.47-0.1,0.71c1.09,0.32,2.33,0.16,3.58,0.3c0.51,0.06,1.12,0.07,1.69,0.18
		c0.25,0.05,0.56,0.12,0.84,0.13c0.32,0.01,0.68,0.07,0.85,0.03c0.28-0.07,0.18-0.19,0.36-0.39c0.43-0.5,1.38-0.16,1.53,0.35
		C142.66,5.35,142.2,6.08,142,7c-0.2,0.87-0.44,1.77-0.69,2.48c-0.09,0.28-0.22,0.51-0.45,0.69c-0.09,0.29-0.29,0.47-0.62,0.52
		c-0.05-0.13-0.27-0.03-0.36-0.09c-0.01-0.01-0.03-0.16-0.06-0.2c-0.06-0.06-0.17-0.06-0.19-0.09c-0.63-0.78-0.03-1.42,0.17-2.34
		c0.13-0.65,0.23-1.23,0.19-1.85c-1.16-0.22-2.74-0.26-4.03-0.13c-0.11,0.75-0.08,1.75-0.36,2.28c0.9,0.42,2.14-0.06,3.06,0.04
		c0.1,0.45-0.37,1.04-0.72,1.24c-0.28,0.16-0.74,0.38-1.11,0.43c-0.75,0.11-1.71-0.17-2.54-0.14c-0.37,0.01-0.66,0.15-0.97,0.14
		c-0.49-0.03-1.36-0.33-1.4-0.74c-0.03-0.3,0.28-0.44,0.36-0.62c0.07-0.15,0.14-0.5,0.39-0.59c0.25-0.09,0.46,0.05,0.71-0.07
		c0.53-0.26,0.76-1.33,0.49-1.96c-0.45-0.19-1.15-0.11-1.66-0.02c-0.33-0.09-0.68-0.1-1.01-0.03c-0.21,0.48-0.13,0.94-0.22,1.4
		c-0.09,0.44-0.37,0.78-0.52,1.14c-0.46,1.08-1.34,1.82-2.89,1.71c-0.35-0.03-1.07-0.06-1.21-0.25c-0.33-0.46-0.48-1.36,0.23-1.6
		c0.51-0.17,1.09,0.15,1.62,0.12c0.44-0.03,0.89-0.28,1.08-0.73c0.11-0.27,0.34-1.11,0.06-1.43c-0.25-0.28-1.58-0.05-2.12-0.12
		c-0.66-0.08-1.31-0.21-1.95-0.37c0.21,0.6,0.11,1.32,0.1,2.11c-0.01,0.61,0.01,1.36,0.29,1.69c0.36,0.41-0.48,1.01-0.94,0.98
		c-0.39-0.03-0.71-0.39-0.98-0.84c-0.26-0.41-0.42-0.88-0.49-1.36c-0.08-0.56-0.04-1.16-0.16-1.69c-0.12-0.5-0.44-0.91-0.49-1.36
		c-0.05-0.47,0.03-0.94,0.23-1.37c0.15-0.34,0.43-0.81,0.65-0.98c0.38-0.28,1.16-0.47,1.79-0.33c0.78,0.17,1.12,1.02,1.79,1.22
		c0.7,0.2,1.8,0.11,2.57,0.27c0.32,0.07,0.59,0.35,0.91,0.32c0.42-0.05,0.62-0.53,0.78-0.92c-0.33-0.29-0.9-0.21-0.98-0.71
		C130.25,2.15,130.94,1.31,131.55,1.18"/>
	<path class="st0" d="M132.39,12.98c0.48,0.3,1.44,0.2,2.21,0.31c0.24,0.04,0.54,0.16,0.68,0.12c0.22-0.06,0.22-0.42,0.52-0.3
		c0.32-0.34,0.59-1.1,1.24-1.02c0.2,0.03,0.51,0.42,0.55,0.65c0.06,0.38-0.25,0.67-0.4,1.01c-0.22,0.54-0.28,1.24-0.45,1.89
		c-0.04,0.18-0.24,0.37-0.26,0.59c-0.07,0.67-0.39,1.65-0.23,2.09c0.12,0.32,0.44,0.29,0.58,0.58c0.6,0.28,1.34,0.7,2.18,1
		c0.8,0.28,1.77,0.6,2.57,0.6c0.27,0,0.63-0.04,0.88-0.14c0.13-0.05,0.17-0.17,0.29-0.23c0.11-0.05,0.27-0.04,0.39-0.1
		c0.2-0.1,0.53-0.43,0.65-0.65c0.12-0.23,0.07-0.85,0.33-0.88c0.32-0.03,0.35,1.03,0.29,1.5c-0.11,0.86-0.92,1.96-1.56,2.39
		c-0.32,0.2-0.74,0.34-1.2,0.5c-0.41,0.14-0.88,0.42-1.33,0.36c-0.45-0.05-1.16-0.79-1.56-0.99c-0.43-0.22-0.9-0.33-1.33-0.61
		c-1.1-0.71-3.09-1.55-3.22-3.13c-0.08-1.04,0.15-2.06,0.45-2.87c0.09-0.22,0.29-0.43,0.17-0.71c-0.85,0-2.25,0.13-3.23-0.01
		c-0.38,0.64-0.54,1.34-0.94,1.93c-0.18,0.26-0.46,0.48-0.68,0.75c-0.22,0.26-0.39,0.59-0.62,0.82c-0.57,0.56-1.8,1.05-2.7,1.26
		c-0.74,0.17-1.56,0.28-2.37,0.35c-0.74,0.05-1.46,0.07-1.95-0.15c-0.41-0.18-0.73-0.35-0.91-0.81c-0.19-0.47-0.22-1.33,0.42-1.24
		c-0.1-0.33,0.63-0.69,1.07-0.4c0.13,0.09,0.13,0.29,0.26,0.39c0.2,0.15,0.4,0.07,0.55,0.22c0.41-0.15,0.88,0.02,1.36-0.01
		c0.16-0.01,0.32-0.11,0.49-0.13c0.35-0.04,0.77-0.03,1.17-0.1c0.42-0.08,0.72-0.19,0.88-0.5c0.36-0.12,0.58-0.35,0.88-0.63
		c0.16-0.15,0.37-0.29,0.46-0.42c0.09-0.14,0.09-0.32,0.16-0.46c0.17-0.32,0.48-0.57,0.52-0.94c-0.23-0.05-0.43-0.11-0.65-0.1
		c-0.41,0.02-0.88,0.24-1.24,0.2c-0.17-0.02-0.3-0.18-0.46-0.22c-0.33-0.11-0.68-0.05-0.97-0.22c-0.6,0.26-1.53,0.01-1.2-0.74
		c-0.79-0.49,0.11-1.45,0.61-1.73c0.36-0.2,1.07-0.35,1.63-0.2c0.36,0.09,0.53,0.42,0.94,0.61c0.66,0.3,1.5-0.01,2.05,0.25
		c-0.01-0.27,0.02-0.49-0.06-0.65c-0.21-0.42-1.01-0.32-1.08-0.81c-0.02-0.16,0.07-0.35,0.2-0.52c0.23-0.32,0.56-0.68,0.88-0.89
		c0.08-0.06,0.78-0.01,1.04,0.06c0.63,0.16,1.3,0.94,1.3,1.58c0,0.17-0.1,0.31-0.13,0.49C132.46,12.27,132.51,12.64,132.39,12.98"/>
</g>
</svg>
